<?xml version="1.0" encoding="utf-8"?>
<!-- Generator: Adobe Illustrator 23.0.6, SVG Export Plug-In . SVG Version: 6.00 Build 0)  -->
<svg version="1.1" id="bd2cc7d1-84bf-4eba-bc4c-9f93ef6f675e"
	 xmlns="http://www.w3.org/2000/svg" xmlns:xlink="http://www.w3.org/1999/xlink" x="0px" y="0px" viewBox="0 0 1011 586"
	 style="enable-background:new 0 0 1011 586;" xml:space="preserve">
<style type="text/css">
	.st0{fill:#005AD4;}
	.st1{fill:#F2F2F2;}
	.st2{fill:#FF6584;}
	.st3{fill:#11AB7C;}
	.st4{opacity:0.1;enable-background:new    ;}
	.st5{fill:#F5B759;}
	.st6{fill:#FFFFFF;}
	.st7{fill:#EF6C4D;}
</style>
<title>close_tab</title>
<polygon class="st0" points="748.1,256.2 641.7,583.4 297.6,583.4 191.3,256.2 469.7,53.9 "/>
<polygon class="st1" points="473.8,356.4 472.1,356.4 472.1,354.7 471.8,354.7 471.8,356.4 470.1,356.4 470.1,356.7 471.8,356.7 
	471.8,358.4 472.1,358.4 472.1,356.7 473.8,356.7 "/>
<polygon class="st1" points="372.3,458.7 370.6,458.7 370.6,457 370.3,457 370.3,458.7 368.6,458.7 368.6,459.1 370.3,459.1 
	370.3,460.8 370.6,460.8 370.6,459.1 372.3,459.1 "/>
<polygon class="st1" points="484,489.4 482.3,489.4 482.3,487.7 481.9,487.7 481.9,489.4 480.2,489.4 480.2,489.8 481.9,489.8 
	481.9,491.5 482.3,491.5 482.3,489.8 484,489.8 "/>
<circle class="st2" cx="546.4" cy="408.7" r="3.7"/>
<circle class="st1" cx="302.8" cy="228.4" r="6.5"/>
<path class="st1" d="M256.1,453.1l-1-0.2C282,334.4,399.8,260,518.3,286.8c57,12.9,106.6,48,137.7,97.5c13.2,20.9,22.7,43.9,28.2,68
	l-1,0.2c-22.8-100.2-110.6-170.1-213.5-170.1C368.2,282.4,278.4,354.2,256.1,453.1z"/>
<rect x="537.6" y="195.9" class="st1" width="9.8" height="388.3"/>
<path class="st3" d="M638.1,245.4c0.6,135.8-94.9,246.3-94.9,246.3S446.6,382.1,446,246.3S541,0,541,0S637.5,109.6,638.1,245.4z"/>
<rect x="373.8" y="368" class="st1" width="5.5" height="215.9"/>
<path class="st3" d="M429.8,395.5c0.3,75.5-52.8,137-52.8,137s-53.7-61-54-136.5s52.8-137,52.8-137S429.4,320,429.8,395.5z"/>
<path class="st4" d="M429.8,395.5c0.3,75.5-52.8,137-52.8,137s-53.7-61-54-136.5s52.8-137,52.8-137S429.4,320,429.8,395.5z"/>
<rect x="302.8" y="368" class="st1" width="5.5" height="215.9"/>
<path class="st3" d="M358.7,395.5c0.3,75.5-52.8,137-52.8,137s-53.7-61-54-136.5s52.8-137,52.8-137S358.4,320,358.7,395.5z"/>
<polygon class="st1" points="381.7,137.7 380,137.7 380,136 379.7,136 379.7,137.7 378,137.7 378,138 379.7,138 379.7,139.7 
	380,139.7 380,138 381.7,138 "/>
<polygon class="st1" points="362.2,240.1 360.5,240.1 360.5,238.4 360.1,238.4 360.1,240.1 358.4,240.1 358.4,240.4 360.1,240.4 
	360.1,242.1 360.5,242.1 360.5,240.4 362.2,240.4 "/>
<polygon class="st1" points="473.8,270.8 472.1,270.8 472.1,269.1 471.8,269.1 471.8,270.8 470.1,270.8 470.1,271.1 471.8,271.1 
	471.8,272.8 472.1,272.8 472.1,271.1 473.8,271.1 "/>
<circle class="st2" cx="406.3" cy="188" r="3.7"/>
<path class="st5" d="M675.1,219c-23.5-35-14.2-82.4,20.7-105.9s82.4-14.2,105.9,20.7c23.5,35,14.2,82.4-20.7,105.9
	c-20.8,14-47.2,16.9-70.5,7.7c-3.7,13.1-17.3,20.8-30.4,17.1c-13.1-3.7-20.8-17.3-17.1-30.4C664.8,227.7,669.1,222.2,675.1,219z"/>
<ellipse transform="matrix(0.866 -0.5 0.5 0.866 13.0918 391.6187)" class="st6" cx="737.3" cy="171.4" rx="4.4" ry="32.6"/>
<ellipse transform="matrix(0.5 -0.866 0.866 0.5 220.2314 724.2159)" class="st6" cx="737.3" cy="171.4" rx="32.6" ry="4.4"/>
<circle class="st7" cx="79.3" cy="543.4" r="40"/>
<ellipse transform="matrix(0.9985 -5.530043e-02 5.530043e-02 0.9985 -26.998 5.1358)" class="st7" cx="79.3" cy="490.4" rx="28.8" ry="28.8"/>
<ellipse class="st7" cx="79.3" cy="445.7" rx="20.5" ry="20.5"/>
<path class="st3" d="M0,585.4c52.2-6.8,102.4-12.6,150.6-17.4L132,536.9c6.4-1.8,34.3,16.2,34.3,16.2l-23.6-89.9
	c32.2,3.6,47.2,95.3,47.2,95.3l36.5-30.5l-18,34.6C355.8,549.7,483,545.8,590,546.7l-15.9-26.6c6.4-1.8,34.3,16.2,34.3,16.2
	L585,446.5c32.2,3.6,47.2,95.3,47.2,95.3l36.5-30.5l-19,36.6c89.6,2.5,162.6,8.4,219,14.9c-15.8-41.3-71.1-81.1-71.1-81.1
	c42.5,11.1,64.7,29.2,76.1,45.9c1.7-50.8-2.8-145.1-45.9-249.8c0,0,85.8,161.8,72.8,269.6l-1.6,19.2c74.5,9.6,112,19.4,112,19.4
	L0,585.4z"/>
</svg>
