<?xml version="1.0" encoding="utf-8"?>
<!-- Generator: Adobe Illustrator 23.0.6, SVG Export Plug-In . SVG Version: 6.00 Build 0)  -->
<svg version="1.1" id="bd2cc7d1-84bf-4eba-bc4c-9f93ef6f675e"
	 xmlns="http://www.w3.org/2000/svg" xmlns:xlink="http://www.w3.org/1999/xlink" x="0px" y="0px" viewBox="0 0 1011 586"
	 style="enable-background:new 0 0 1011 586;" xml:space="preserve">
<style type="text/css">
	.st0{fill:#F2F2F2;}
	.st1{opacity:3.000000e-02;enable-background:new    ;}
	.st2{fill:#005AD4;}
	.st3{fill:#CBCEDA;}
	.st4{fill:#11AB7C;}
	.st5{opacity:0.2;fill:#FFFFFF;enable-background:new    ;}
	.st6{fill:none;stroke:#FFFFFF;stroke-width:2;stroke-miterlimit:10;}
	.st7{fill:none;stroke:#FFFFFF;stroke-miterlimit:10;}
	.st8{fill:#EF6C4D;}
	.st9{fill:#F5B759;}
	.st10{fill:url(#SVGID_1_);}
	.st11{fill:#3F3D56;}
	.st12{fill:#3C354C;}
	.st13{fill:#FFC1C7;}
	.st14{opacity:0.1;enable-background:new    ;}
	.st15{fill:url(#SVGID_2_);}
	.st16{fill:#575A89;}
	.st17{fill:none;stroke:#11AB7C;stroke-width:4;stroke-miterlimit:10;}
	.st18{fill:#57B894;}
	.st19{fill:#70483C;}
	.st20{opacity:0.2;enable-background:new    ;}
</style>
<title>close_tab</title>
<path class="st0" d="M401.3,43.1l-13,8l7.9-13.9c-2.2-1.7-5-2.7-7.8-2.7h-0.2c-0.9,0-1.8,0-2.7-0.2l-4.4,2.7l1.9-3.3
	c-3.1-1.1-5.8-3-7.7-5.7l-7.9,4.9l5-8.8c-4.6-5.3-10.8-8.6-17.6-8.6c-8.2,0-15.5,4.7-20.2,12.1c-2.8,4.5-8,7.1-13.4,7h-0.4
	c-9,0-16.4,9.9-16.4,22.1s7.3,22.1,16.4,22.1c2,0,3.9-0.5,5.7-1.4c5.9-3,13.6-3,19.8-0.4c5.4,2.3,11.5,2.3,16.8,0
	c6.3-2.6,13.5-2.5,19.6,0.4c1.7,0.9,3.7,1.3,5.6,1.4c9,0,16.4-9.9,16.4-22.1C404.8,51.9,403.6,47.2,401.3,43.1z"/>
<path class="st1" d="M385.4,59.8c-4.7-0.9-9.6-0.4-14,1.5c-5.4,2.3-11.5,2.3-16.8,0c-6.3-2.7-13.6-2.6-19.8,0.4
	c-1.8,0.9-3.7,1.4-5.7,1.4c-8,0-14.7-7.8-16.1-18.2c1.6-1.1,3-2.6,4-4.2c4.7-7.3,12-12,20.2-12s15.4,4.7,20.1,11.9
	c2.9,4.5,7.9,7.1,13.3,7.1h0.2C377.1,47.6,382.7,52.6,385.4,59.8z"/>
<path class="st0" d="M299,372.4l-5.3-3.2c-0.5-0.3-1-0.6-1.5-0.9c27.3-4.5,45.6-29.6,40.9-56c-3.3-18.4-17.2-33.4-35.8-38.4l0.3,20
	l-11.3-21.7h-0.1c-27.6-1.2-51.1,19.4-52.4,46.1c-0.1,0.9,0,1.8,0,2.8c-3.9-4.4-7.5-9-9.9-14.1c-4.8-10.4-4.9-22.1-4.5-36.3
	c0.8-28.2,2-56.7,3.7-85.1c24.5-2.6,43.3-22.1,44.5-45.8c0.1-1.5,0-2.9,0-4.4c0-0.4,0-0.7-0.1-1.1c-0.1-1.4-0.2-2.8-0.5-4.2
	c0-0.2-0.1-0.4-0.1-0.7c-0.2-1.2-0.5-2.3-0.7-3.4c-0.1-0.4-0.2-0.8-0.3-1.3c-0.4-1.2-0.7-2.4-1.2-3.7c-0.2-0.4-0.3-0.8-0.5-1.2
	c-0.4-0.9-0.7-1.8-1.1-2.6c-0.2-0.5-0.4-0.9-0.7-1.4c-0.1-0.1-0.1-0.2-0.2-0.3l0,0c-10.9-20.8-35.6-31.2-58.8-24.6l0.3,26
	l-11.2-21.5c-18.9,10.5-28.6,31.6-23.9,52.2h-0.1c0.1,0.3,0.2,0.7,0.3,1c0.2,0.6,0.3,1.3,0.5,1.9c0.2,0.8,0.5,1.6,0.8,2.4
	c0.2,0.6,0.4,1.2,0.6,1.8c0.3,0.9,0.7,1.7,1.1,2.5c0.2,0.5,0.4,1,0.7,1.5c0.6,1.3,1.3,2.5,2.1,3.7c0.3,0.4,0.6,0.8,0.8,1.2
	c0.5,0.8,1.1,1.6,1.7,2.4c0.4,0.5,0.7,0.9,1.1,1.4c0.6,0.7,1.1,1.3,1.7,2c0.4,0.5,0.8,0.9,1.3,1.3c0.6,0.6,1.2,1.2,1.9,1.8
	c0.4,0.4,0.8,0.8,1.3,1.2c0.7,0.6,1.5,1.2,2.3,1.8c0.4,0.3,0.8,0.6,1.2,0.9c1.2,0.8,2.4,1.6,3.7,2.4c0.2,0.1,0.5,0.3,0.7,0.4
	c1.1,0.6,2.1,1.2,3.2,1.7c0.5,0.2,1,0.4,1.4,0.6c0.9,0.4,1.8,0.8,2.8,1.1l1.7,0.6c0.9,0.3,1.9,0.6,2.8,0.8c0.6,0.1,1.1,0.3,1.7,0.4
	c1,0.2,2.1,0.4,3.1,0.6l0.2,0c-0.7,12-1.3,23.9-1.8,35.9c-12.1-24-42.1-34.1-66.9-22.3c-0.9,0.4-1.7,0.8-2.6,1.3l8.9,23.5
	l-18.2-16.9c-9.8,8.6-15.6,20.7-16.2,33.5c-0.2,4.5,0.2,9,1.3,13.3c6.3,26,33.3,42.2,60.2,36.1c13.4-3.1,25-11.3,31.9-22.9
	c0,1.2-0.1,2.4-0.1,3.6c-0.3,12.6-0.8,28.2,5.7,42.2c4.4,9.5,11.5,17.2,18.4,24.1c4.5,4.5,9.3,8.8,14.1,13
	c4.8,6.2,11,11.2,18.1,14.6c7.9,5.9,16.1,11.5,24.6,16.6l5.3,3.2c4.8,2.9,9.7,5.8,14.4,8.8c-0.8-0.1-1.7-0.2-2.5-0.2
	c-21.8-1-41.7,11.8-49.3,31.6l31.3,24.6l-34.4-7.7c0,26.8,22.5,48.4,50.2,48.4c7.5,0,14.9-1.6,21.6-4.8l-2.3,2.8
	c-1.5,1.9-3.1,3.7-4.6,5.5c-20.4,24.9-26,48.6-15.9,66.7l12.3-6.4c-9.9-17.6,4.9-40.1,14.6-51.9c1.5-1.8,3-3.6,4.5-5.4
	c13-15.6,27.7-33.4,27.4-55.1C358.3,408,325.4,388.3,299,372.4z"/>
<path class="st0" d="M525.7,351.6l6.6-3.9c0.6-0.4,1.2-0.8,1.9-1.2c-28.9-4.8-50.5-28.4-51.8-56.7c-0.5-9.5,1.4-18.9,5.4-27.5
	c7.6-16.4,22.3-28.6,40.2-33.5l-0.3,24.9l14.1-27.1h0.2c34.5-1.6,63.7,24.2,65.3,57.6c0.1,1.2,0,2.3,0,3.4
	c4.9-5.4,9.4-11.3,12.3-17.6c6-12.9,6.1-27.5,5.6-45.3c-0.9-35.2-2.5-70.8-4.6-106.1c-30.5-3.3-54-27.5-55.5-57.2
	c-0.1-1.8-0.1-3.7,0-5.5c0-0.5,0-0.9,0.1-1.4c0.1-1.8,0.3-3.5,0.6-5.2c0-0.3,0.1-0.6,0.2-0.8c0.3-1.5,0.6-2.9,0.9-4.3
	c0.1-0.5,0.3-1.1,0.4-1.6c0.4-1.5,0.9-3.1,1.5-4.6c0.2-0.5,0.4-1,0.6-1.5c0.5-1.1,0.9-2.2,1.4-3.2c0.3-0.6,0.5-1.1,0.8-1.7
	c0.1-0.1,0.1-0.3,0.2-0.4l0,0c13.6-26,44.5-38.9,73.4-30.6l-0.4,32.4l14-26.8c23.6,13.1,35.7,39.4,29.8,65.1h0.1
	c-0.1,0.4-0.2,0.8-0.3,1.3c-0.2,0.8-0.4,1.6-0.6,2.4c-0.3,1-0.6,2-1,3c-0.3,0.7-0.5,1.5-0.8,2.2c-0.4,1.1-0.9,2.1-1.4,3.1
	c-0.3,0.6-0.5,1.2-0.8,1.8c-0.8,1.6-1.7,3.1-2.6,4.6c-0.3,0.5-0.7,1-1,1.5c-0.7,1-1.3,2-2.1,3c-0.5,0.6-0.9,1.2-1.4,1.7
	c-0.7,0.8-1.4,1.7-2.1,2.5c-0.5,0.5-1,1.1-1.6,1.7c-0.8,0.8-1.6,1.5-2.4,2.3c-0.5,0.5-1.1,1-1.7,1.5c-0.9,0.8-1.9,1.5-2.9,2.3
	c-0.5,0.4-1,0.8-1.5,1.1c-1.5,1.1-3,2.1-4.6,3c-0.3,0.2-0.6,0.3-0.9,0.5c-1.3,0.8-2.7,1.5-4,2.1c-0.6,0.3-1.2,0.5-1.8,0.8
	c-1.1,0.5-2.3,1-3.4,1.4c-0.7,0.3-1.4,0.5-2.1,0.7c-1.2,0.4-2.3,0.7-3.5,1c-0.7,0.2-1.4,0.4-2.1,0.5c-1.3,0.3-2.6,0.5-3.9,0.8
	l-0.3,0c0.9,14.9,1.6,29.9,2.3,44.8c15.1-30,52.5-42.5,83.5-27.9c1.1,0.5,2.2,1.1,3.3,1.6l-11,29.3l22.7-21.1
	c12.2,10.8,19.4,25.8,20.2,41.7c0.3,5.6-0.2,11.2-1.6,16.6c-7.9,32.5-41.5,52.7-75.1,45c-16.8-3.8-31.2-14.1-39.8-28.6
	c0,1.5,0.1,3,0.2,4.6c0.4,15.7,0.9,35.2-7.1,52.6c-5.5,11.8-14.3,21.4-23,30c-5.7,5.6-11.5,11-17.6,16.3
	c-5.9,7.7-13.7,13.9-22.6,18.2c-9.9,7.4-20.1,14.3-30.7,20.7l-6.6,4c-5.9,3.6-12,7.2-18,11c1.1-0.1,2.1-0.2,3.2-0.3
	c27.2-1.2,52,14.7,61.5,39.3l-39,30.8l42.9-9.6c0,33.4-28.1,60.4-62.6,60.4c-9.3,0-18.6-2-27-6c1,1.2,1.9,2.3,2.9,3.5
	c1.9,2.3,3.8,4.6,5.7,6.9c25.4,31.1,32.5,60.7,19.9,83.2l-15.3-8c12.2-21.9-6.2-50-18.2-64.7c-1.8-2.2-3.7-4.5-5.6-6.8
	c-16.2-19.5-34.6-41.6-34.2-68.7C451.7,396,492.7,371.4,525.7,351.6z"/>
<path class="st2" d="M798.1,135.3V419c0,3.2-2.7,5.8-6,5.8c0,0,0,0,0,0H194.2c-3.3,0-6-2.6-6-5.8c0,0,0,0,0,0V135.3
	c0-3.2,2.7-5.8,6-5.8c0,0,0,0,0,0H792C795.4,129.4,798.1,132,798.1,135.3z"/>
<path class="st3" d="M798.1,133.3v13.1H188.2v-13.1c0-2.1,1.8-3.9,4-3.9H794C796.3,129.4,798.1,131.2,798.1,133.3z"/>
<ellipse class="st4" cx="201.6" cy="137.5" rx="4.2" ry="4"/>
<ellipse class="st4" cx="213.3" cy="137.5" rx="4.2" ry="4"/>
<ellipse class="st4" cx="225" cy="137.5" rx="4.2" ry="4"/>
<path class="st5" d="M700,336.6v48.7l-414.3,0.2l-0.4-97.4c4.4,12.5,15.2,14.7,34.2-7.3c46.5-53.7,109.6-67.8,158.5-69.3
	c33.5-1,66.9,5.7,98.7,18.9c13.2,5.5,65.5,11.5,100.1,14.1c13,1,23,11.5,23,24.1L700,336.6z"/>
<path class="st5" d="M700,289v96.8H285.4v-21c11.9-2.9,56.2-14,77.5-44.7c25.4-36.7,60-46.4,86.7-47.4c18.3-0.7,36.6,3.9,54,12.9
	c19.6,10.2,57.4,22.6,86.1-13.3c31.7-39.6,80.5-7,92.9,5C686.9,281.6,700,289,700,289z"/>
<polyline class="st6" points="285.4,186.3 285.4,384.2 700,384.2 "/>
<line class="st7" x1="337.6" y1="384.2" x2="337.6" y2="263.6"/>
<line class="st7" x1="388" y1="384.2" x2="388" y2="231.3"/>
<line class="st7" x1="438.3" y1="384.2" x2="438.3" y2="215.9"/>
<line class="st7" x1="488.6" y1="384.2" x2="488.6" y2="211.2"/>
<line class="st7" x1="538.9" y1="384.2" x2="538.9" y2="216.5"/>
<line class="st7" x1="589.3" y1="384.2" x2="589.3" y2="236.1"/>
<line class="st7" x1="639.6" y1="384.2" x2="639.6" y2="246.1"/>
<ellipse class="st8" cx="337.4" cy="262" rx="9.3" ry="9"/>
<ellipse class="st9" cx="387.7" cy="231.3" rx="9.3" ry="9"/>
<ellipse class="st4" cx="438" cy="216.5" rx="9.3" ry="9"/>
<ellipse class="st9" cx="488.3" cy="211.2" rx="9.3" ry="9"/>
<ellipse class="st8" cx="538.7" cy="216.5" rx="9.3" ry="9"/>
<ellipse class="st9" cx="589" cy="236.6" rx="9.3" ry="9"/>
<ellipse class="st4" cx="639.3" cy="247.2" rx="9.3" ry="9"/>
<ellipse class="st4" cx="493" cy="567" rx="430" ry="17"/>
<linearGradient id="SVGID_1_" gradientUnits="userSpaceOnUse" x1="567.4457" y1="-67.2526" x2="567.4457" y2="313.1807" gradientTransform="matrix(-1 0 0 -1 735 507.5)">
	<stop  offset="0" style="stop-color:#808080;stop-opacity:0.25"/>
	<stop  offset="0.54" style="stop-color:#808080;stop-opacity:0.12"/>
	<stop  offset="1" style="stop-color:#808080;stop-opacity:0.1"/>
</linearGradient>
<path class="st10" d="M111.1,268.4c0,0.7-0.3,1.4-0.7,2c3.3-0.1,6.3-2.2,9.4-3.2c-0.6,3.1,0,6.9,0.4,9.5c0.4,2.6,1.1,5.1,2,7.6
	c2.1,8.8,6,17.4,9.4,25.9c1.5,3.3,2.6,6.8,3.3,10.4c2.4,13.6-5.8,26.8-7.3,40.6c-0.1,0.8-0.1,1.5,0,2.3c-0.1,0.1-0.3,0.3-0.4,0.5
	c-5.7,8.4-4.9,22.5-3.9,32.5c1,10,4.3,19.6,7.4,29.2c0.9,2.6,1.6,5.3,2.2,8.1c0.5,3.8,0.6,7.6,0.2,11.3c-1,17.6-3.6,35.3-0.6,52.6
	c2.2,12.6,7,24.1,7.5,36.9c0.4-0.9,1-1.8,1.8-2.4l0.9,33.6c-0.1,0.6,0.2,1.3,0.7,1.7c0.6,0.4,1.5,0,2.2-0.1c2.2-0.3,3.6,2.1,5.1,3.7
	c2.2,2.4,5.6,3.6,8.9,3.8c3.3,0.1,6.7-0.2,10-0.9c1.5-0.3,3.2-0.6,4.3-1.6c1.2-1.2,1.7-2.8,1.5-4.4c-0.7-4.9-6.2-7.8-8.9-12
	c-3.3-5-2.5-11.7-5.7-16.7c-1.1-1.7-2.6-3.2-3.6-5c-0.5-1.1-0.9-2.2-1.2-3.4c1,0.3,1.9,0.7,2.8,1.3c-0.3-2.6-0.6-5.3-0.9-7.9
	l-0.1-1.1c-0.4-3.6-0.8-7.1-1.1-10.7c-1-11.7,2.4-23.2,0-34.7c-0.5-2.4,0.3-5,1-7.3c4.2-13.6,6.8-27.6,7.7-41.8
	c0.3-5,0.3-9.8,1.9-14.6c1.9,7.6,7.9,13.7,11.7,20.7c2.3,4.4,3.8,9.1,6.3,13.4c1.2,2.1,2.7,4,3.5,6.3c1.2,3.5,0.6,7.3,0,11
	c-2.7,19-2.4,38.4-1.5,57.6c-0.8,7.3-2.6,14.6-5.2,21.5c-1,2.7-2.2,5.9-0.6,8.4c0.7,0.9,1.5,1.7,2.5,2.3c2.4,1.6,4.9,3.1,7.5,4.4
	c0.8,0.5,1.7,0.7,2.6,0.6c0.6-0.2,1.1-0.5,1.6-0.8c2-1.2,4.7-1,6.9-0.2c2.2,0.8,4.3,2,6.4,2.9c4.6,1.9,9.6,2.2,14.4,1
	c2-0.5,4.2-1.6,4.8-3.5c0.6-1.9-0.5-3.9-2.1-5.2c-1.6-1.3-3.6-1.9-5.4-2.9c-4-2-7.3-5.2-9.4-9.1c-1.3-2.6-2.3-5.2-3-8
	c-1-3.3-1.9-6.6-2.9-9.9c0.6,0.4,1.1,0.7,1.6,1.2c1.4-16.3,2.7-32.7,6.4-48.8c1.7-7.7,4-15.4,3.1-23.2c-0.5-4.1-1.8-8.1-3-12
	c-3.9-12.3-7.3-24.7-10.3-37.3c1.1-1.2,1.9-2.6,2.5-4c0.9-2.8,1.5-5.7,1.5-8.6c1.4-19.7,1.3-39.4-0.2-59.1c-0.4-5-1-10.2-3-14.8h1.2
	c-1.4,0-3.7-13.6-4-15.1c-0.9-5.2-1.6-10.5-2.6-15.8c-0.5-2.5-1-5.1-1.7-7.6c-0.5-1.7-2.3-12-3.7-13.2c-0.2-0.1-0.3-0.2-0.5-0.3
	c-0.7-2.3-2.3-4.3-4.4-5.6c-2.3-1.3-5.1-1.3-7.8-1.1c-0.8-1.1-1.5-2.1-2.3-3.2c-1.4-1.7-2.5-3.7-3.2-5.8c-0.2-0.9-0.3-1.8-0.4-2.7
	c0-0.6,0-1.2-0.1-1.8c0-0.3,0-0.6,0-0.9c0-0.6-0.1-1.2-0.2-1.8l0,0c-0.1-0.5-0.2-1-0.3-1.5c-0.1-0.2-0.1-0.4-0.2-0.6
	c-0.4-1.2-0.8-2.4-1.2-3.7c-1-4-0.5-8.1-0.4-12.2c0.2-4.1-0.1-8.4-2.5-11.8c-1.7-2.5-4.6-4.4-5.5-7.3c-0.4-1.4-0.4-2.9-1.1-4.2
	c-0.8-1.4-2.2-2.5-3.8-3.1c-1.9-0.8-5.7-1.9-7.7-0.9c-0.4,0.2-0.7,0.4-1,0.8c-2.2,0.1-4.3,0.4-6.2-0.5c-1.5-0.7-2.5-2-3.9-2.8
	c-3.3-1.8-7.6,0-10.6,2.4c-4.7,3.8-8.2,8.8-9.9,14.5c-1.3,4.4-1.9,9.5-5.6,12.3c-1.6,1.1-3.6,1.8-4.7,3.3c-0.8,1.2-1.2,2.7-1.3,4.1
	c-0.4,3.3-0.7,6.7,0.2,10c0.7,2.4,2,4.6,2.9,7c2.3,6.8,0.2,14.3-5.2,19.2C107.9,268.5,109.5,268.7,111.1,268.4z M191.6,366.6
	c2.3-1.2,4-3.3,4.5-5.8c0.1,0.3,0.2,0.6,0.3,0.9c1.1,4.2,0.9,8.7-0.6,12.8C194.6,371.7,193.2,369.1,191.6,366.6z M193.3,348.7
	c-1.4-1.9-2.6-4-3.5-6.2c-1.3-3.5-1-7.3-0.7-11c0.2-2.8,0.6-5.6,1.2-8.4C190.6,331.7,191.6,340.2,193.3,348.7L193.3,348.7z"/>
<path class="st11" d="M160.9,200.7c1.6,0.6,2.9,1.6,3.7,3.1c0.6,1.3,0.6,2.8,1.1,4.1c0.9,2.9,3.7,4.8,5.4,7.3
	c2.3,3.4,2.6,7.7,2.4,11.8c-0.2,4.1-0.7,8.2,0.4,12.1c0.5,1.9,1.3,3.8,1.7,5.7c0.4,2.4,0.1,4.9,0.7,7.2c0.7,2.1,1.7,4,3.1,5.8
	l5.4,7.7c-2.4-0.6-4.8-1.3-7.2-2.1c0.7,2.2,2.1,4.2,3.9,5.7l-3.9-4.6c-0.8-1.1-1.8-2-2.9-2.7c-1.4-0.8-3.2-0.9-4.8-1.2
	c-3.1-0.6-6.2-2.2-7.8-4.9c-2-3.6-0.7-8.2-1.9-12.1c-0.8-2.9-2.9-5.3-4.3-8c-3.2-6-3-13.2-4-19.9c-0.4-2.9-1.1-5.7-1.1-8.6
	c0-2.1,0.2-6.2,2.5-7.3C155.3,198.8,159,199.9,160.9,200.7z"/>
<path class="st3" d="M204.7,520.1l4.2,14.4c0.7,2.7,1.7,5.4,2.9,7.9c2,3.8,5.3,7,9.2,9c1.8,0.9,3.7,1.6,5.3,2.8s2.7,3.3,2.1,5.2
	c-0.6,1.9-2.7,2.9-4.7,3.5c-4.7,1.2-9.7,0.9-14.2-1c-2.1-0.9-4.1-2.2-6.3-2.9c-2.2-0.8-4.8-0.9-6.8,0.2c-0.5,0.3-1,0.6-1.6,0.8
	c-0.9,0.1-1.8-0.1-2.6-0.6c-2.6-1.3-5-2.7-7.4-4.4c-1-0.6-1.8-1.4-2.4-2.2c-1.6-2.4-0.5-5.7,0.5-8.3c2.7-7.2,4.4-14.6,5.2-22.2
	c0-0.7,0.2-1.3,0.8-1.8c0.4-0.2,0.8-0.3,1.2-0.3l17.9-0.8"/>
<path class="st3" d="M158.5,534.5c1,1.8,2.5,3.2,3.5,4.9c3.1,5,2.4,11.6,5.6,16.6c2.7,4.2,8.1,7,8.8,11.9c0.3,1.6-0.3,3.2-1.4,4.4
	c-1.1,1-2.7,1.3-4.2,1.6c-3.2,0.7-6.5,1-9.8,0.9c-3.3-0.3-6.6-1.4-8.8-3.8c-1.4-1.6-2.8-3.9-5-3.6c-0.8,0.1-1.6,0.5-2.2,0.1
	c-0.5-0.4-0.7-1.1-0.6-1.7l-1-36.8c3.2-0.3,8.6-1.5,11.7-0.5C157.7,529.3,157.3,532.2,158.5,534.5z"/>
<path class="st12" d="M189.7,364.4c7.7,9.3,10,21.6,12.5,33.2c3.2,15.1,7.1,29.9,11.8,44.7c1.2,3.9,2.5,7.8,3,11.9
	c0.8,7.8-1.4,15.5-3.1,23.1c-3.6,15.9-4.9,32.2-6.2,48.5c-5.5-4.5-13.5-4.9-19.4-1c-0.9-19.6-1.3-39.4,1.4-58.8
	c0.5-3.6,1.1-7.4,0-10.9c-0.8-2.2-2.2-4.2-3.4-6.3c-2.5-4.2-3.9-9-6.2-13.3c-3.7-7-9.6-12.9-11.5-20.6c-1.6,4.7-1.6,9.5-1.9,14.5
	c-0.8,14.1-3.4,28.1-7.5,41.6c-0.7,2.4-1.5,4.9-1,7.3c2.3,11.5-1,22.9,0,34.5c0.3,3.5,0.7,7.1,1.1,10.6l0.1,1.1l0.9,7.8
	c-3.3-2.2-6.9-1.9-10.9-1.7c-1.4,0-2.7,0.2-4,0.7c-1.6,0.6-2.9,1.9-3.6,3.5c-0.5-12.7-5.2-24.1-7.4-36.7c-3-17.3-0.5-34.9,0.6-52.3
	c0.3-3.8,0.2-7.5-0.2-11.3c-0.5-2.7-1.2-5.4-2.1-8.1c-3-9.5-6.2-19.1-7.3-29c-1-9.9-1.7-24,3.9-32.4c1.7-2.6,6-1.4,8.6-3.1
	c2.1-1.3,4.4-2.2,6.9-2.7C159.2,355.9,174.7,363.1,189.7,364.4z"/>
<path class="st13" d="M163.3,249.2c0.3,3.5,1.1,7.7,4.4,9.2c1.9,0.8,4.1,0.5,6.1,0.8c3.9,0.6,7,3.5,8.8,6.8c1.8,3.4,2.4,7.2,2.8,11
	c0.5,4.7,0.7,9.8-2,13.8c-2.2,3.2-5.9,5.2-9.7,6.2c-7.8,2-16.1,0.5-22.7-4c-3.1-2.3-5.9-5-8.4-8c-5.6-6.3-11.2-13.1-12.3-21.3
	c-0.1-0.9-0.1-2.1,0.7-2.6c0.5-0.3,1.2-0.4,1.8-0.3l5.3,0.1c1.3,0,2.9,0,3.8-1c0.9-1,0.8-2.2,0.8-3.4l-0.4-15
	c-0.1-0.5,0-1.1,0.4-1.5c0.3-0.3,0.8-0.5,1.2-0.5c2.9-0.5,6,0,8.9-0.8c2.7-0.7,7-3.8,9-0.6C163.6,240.7,163,246.2,163.3,249.2z"/>
<path class="st14" d="M163.3,249.2c0.3,3.5,1.1,7.7,4.4,9.2c1.9,0.8,4.1,0.5,6.1,0.8c3.9,0.6,7,3.5,8.8,6.8c1.8,3.4,2.4,7.2,2.8,11
	c0.5,4.7,0.7,9.8-2,13.8c-2.2,3.2-5.9,5.2-9.7,6.2c-7.8,2-16.1,0.5-22.7-4c-3.1-2.3-5.9-5-8.4-8c-5.6-6.3-11.2-13.1-12.3-21.3
	c-0.1-0.9-0.1-2.1,0.7-2.6c0.5-0.3,1.2-0.4,1.8-0.3l5.3,0.1c1.3,0,2.9,0,3.8-1c0.9-1,0.8-2.2,0.8-3.4l-0.4-15
	c-0.1-0.5,0-1.1,0.4-1.5c0.3-0.3,0.8-0.5,1.2-0.5c2.9-0.5,6,0,8.9-0.8c2.7-0.7,7-3.8,9-0.6C163.6,240.7,163,246.2,163.3,249.2z"/>
<ellipse class="st13" cx="149.9" cy="228.5" rx="20.4" ry="19.7"/>
<path class="st3" d="M171.8,283.3c3.3,0.1,7-0.8,8.6-3.6c1.1-1.9,0.9-4.2,0.7-6.4l-1.2-12.1c3.2-0.3,6.6-0.6,9.4,0.9
	c3.7,2,5,6.5,5.5,10.6c0.8,7.7-0.5,15.4-0.1,23.2c0.4,6.5,1.9,13.2-0.1,19.4c-0.8,2.6-2.2,5-3.1,7.5c-1.1,3.2-1.4,6.7-1.7,10.1
	c-0.3,3.7-0.6,7.5,0.7,11c1.1,2.9,3.1,5.4,4.6,8.1c2.4,4.5,2.9,10.6-0.7,14.3c-3.3,3.4-8.9,3.5-13.5,2.4s-9.2-3.1-14-3.3
	c-8.5-0.3-16,5-24.3,6.7c-1.1,0.3-2.3,0.3-3.4,0.1c-1-0.3-1.9-0.8-2.7-1.4l-4.5-3.2c-0.9-0.5-1.7-1.3-2.2-2.1c-0.4-1-0.5-2-0.3-3.1
	c1.5-13.7,9.5-26.8,7.2-40.3c-0.7-3.6-1.8-7-3.3-10.4c-5.7-14.2-12.6-29-10.4-44.1c0.5-3.4,1.5-6.8,3.9-9.2c2.4-2.5,6.4-3.7,9.5-2.1
	c3.1,1.6,4.2,5.1,5.5,8.2c2.6,6,6.8,11.2,12.1,15.1c2.2,1.7,5,3.8,7.9,3.9C165.1,283.4,168.4,283.2,171.8,283.3z"/>
<path class="st13" d="M201.2,313.9c4.9,5.3,5.9,12.9,6.4,20.1c1.5,19.5,1.5,39.2,0.2,58.7c-0.1,2.9-0.6,5.8-1.5,8.5
	c-1.1,2.7-3,5.2-5.8,6.3c-1.8,0.7-4.3,0.5-5.1-1.2c-0.7-1.5,0.4-3.2,1.2-4.8c1.9-3.5,2.5-7.4,1.8-11.3c-1,0.7-1.4,2-1.7,3.2
	l-1.6,6.6c-2.2-0.3-3-2.9-3.3-5c-0.6-3.8-1.2-7.9,0.3-11.4c0.8-1.9,2.3-3.5,3.1-5.4c2.1-4.8,3-10.2,1.6-15.2
	c-4.6-16.9-6.6-34.4-6-52C194,312.8,197.6,313.7,201.2,313.9z"/>
<path class="st3" d="M205.9,319.2c-6.1,0.1-12.1,0.8-18,2.3c-0.8-3.7-0.4-7.5,0-11.3l2.6-25.9c0.2-1.9-0.2-19.5,3.7-16.4
	c1.4,1.1,3.2,11.4,3.6,13.1c0.7,2.5,1.2,5,1.7,7.6c1,5.2,1.6,10.5,2.5,15.7C202.2,305.7,204.5,319.2,205.9,319.2z"/>
<path class="st11" d="M157.6,203.5c0-0.6-0.1-1.2-0.4-1.8c-0.5-0.6-1.3-1.1-2.2-1.1c-2.9-0.4-6.2,0.7-8.8-0.6
	c-1.4-0.7-2.5-2-3.9-2.8c-3.3-1.8-7.5,0-10.4,2.4c-4.7,3.7-8.1,8.7-9.8,14.4c-1.3,4.4-1.8,9.4-5.6,12.2c-1.5,1.1-3.5,1.8-4.7,3.3
	c-0.8,1.2-1.2,2.6-1.2,4c-0.4,3.3-0.7,6.7,0.2,9.9c0.7,2.4,2,4.6,2.8,6.9c2.3,6.8,0.2,14.3-5.2,19.1c1.4,0.8,3,1.1,4.6,0.8
	c0,0.7-0.3,1.4-0.7,2c4.8-0.1,8.9-4.6,13.6-3.7c3.6,0.7,5.5,4.3,8.2,6.7c3.4,3.1,8.7,4.4,13,2.6c4.3-1.8,6.9-7.1,5.1-11.3
	c-2.1-4.8-8.5-6.7-10.7-11.3c-1.7-3.6-0.4-7.9-0.8-11.9c-0.3-3.4-1.8-6.6-2.8-9.9c-1-3.3-1.3-7.1,0.7-10c2.1-3.1,6-4.3,9.6-5.4
	C156.4,215.3,157.9,211.4,157.6,203.5z"/>
<path class="st13" d="M152.6,274.3c0.6-2.8,1.2-5.7,0.1-8.3c-1.9-4.9-8.1-6.4-12.4-9.6c-2.5-1.8-4.4-4.3-5.5-7.1
	c-0.8-2-0.9-4.7,1-5.7c0.7-0.3,1.6-0.5,2.4-0.4c6.7,0.2,12.9,3.7,18,7.9c3,2.4,5.9,5.2,7.3,8.7c0.9,2.5,1.5,5.2,1.7,7.8l1.1,8.8
	c0.7,5.1,1.1,10.2,1.3,15.3c0,2.9-0.2,5.8-0.6,8.7c-0.3,2.1-0.7,4.2-1.9,5.9c-2.3,3.1-6.8,3.8-10.8,3.9c-1.5,0.1-3,0-4.5-0.3
	c-6.6-1.4-11.7-10.4-6.6-15.9c2.1-2.4,5.3-2.4,6.6-5.7C151.3,283.9,151.7,278.7,152.6,274.3z"/>
<path class="st3" d="M147.2,275.8l5.3,8.3c0.3,0.4,0.5,0.9,0.6,1.4c0.1,1.1-0.7,2-1.3,2.9c-4.5,6-3.3,14.2-2,21.4
	c-14.7-4.5-25.4-16.7-27.6-31.5c-0.7-4.3-1.7-11.5,2.3-14.3C133.9,257.3,142.8,268.7,147.2,275.8z"/>
<path class="st11" d="M173.8,259.2c-2-0.3-4.2,0-6.1-0.8c-3.3-1.5-4.1-5.7-4.4-9.2c0-0.3,0-0.7-0.1-1.1c1.2-1.2,2.5-2.3,3.9-3.2
	c1.2-0.7,2.6-1.3,4-1.7l3.7-1.3c0.4,0.9,0.6,1.9,0.8,2.9c0.4,2.4,0.1,4.9,0.7,7.2c0.7,2.1,1.7,4,3.1,5.8l5.4,7.7
	c-1-0.2-2-0.5-2.9-0.8C180,262,177.2,259.7,173.8,259.2z"/>
<linearGradient id="SVGID_2_" gradientUnits="userSpaceOnUse" x1="895.6071" y1="-63.0163" x2="895.6071" y2="334.3298" gradientTransform="matrix(1 0 0 -1 -86 507.5)">
	<stop  offset="0" style="stop-color:#808080;stop-opacity:0.25"/>
	<stop  offset="0.54" style="stop-color:#808080;stop-opacity:0.12"/>
	<stop  offset="1" style="stop-color:#808080;stop-opacity:0.1"/>
</linearGradient>
<path class="st15" d="M912.1,293.3c-1-4.6-2.8-8.9-3.9-13.4c-0.5-2.4-1.1-4.7-1.8-7c-0.4-1-0.9-1.9-1.4-2.8l0.5-0.5
	c-1.7-2.8-1.8-6.3-2.6-9.5c-0.7-2.8-2.1-5.3-2.9-8c-1.2-3.8-1.3-8-3.7-11.1c-1-1.2-2.2-2.2-3.3-3.3c-1.2-1.3-2.2-2.8-3.4-4.1
	c-3.6-3.7-9-4.9-14.1-5.4c-5.1-0.5-10.4-0.5-15.2-2.6c-2-0.9-4.1-2.1-6.1-2c-1.2-1.1-2.2-2.3-3.2-3.5c-1.6-1.8-3-3.8-4.3-5.9
	c1-1.6,1.8-3.4,2.3-5.2l0.3-0.2c1.3-1,2.5-2.3,3.8-3.2c1.2-0.8,2.7-1.7,2.8-3.1c0.1-1.4-1.2-2.5-2.1-3.7c-3-4.3,0.3-10.9-2.8-15.2
	c-1.5-2.1-4.2-2.9-6.7-3.9c-3.3-1.4-6.3-3.5-9.7-4.9s-7.2-2.1-10.5-0.8c-6.3,2.5-8.5,11.1-14.9,13.4c-0.7,0.1-1.3,0.5-1.8,1
	c-0.8,1.2-1.8,8.5-1.6,10c0.2,2,0.7,3,2.1,3.7c0,0.4,0,0.8,0,1.3c0,10.3,7.4,18.9,17.1,20.6c0.9,1,1.7,2,2.4,3.2
	c0.5,1.2,0.8,2.5,0.8,3.8c-0.3-0.2-0.7-0.2-1.1-0.2c-1.3,0.2-2.3,1.1-2.7,2.2c-0.3,1.2-0.5,2.4-0.4,3.7c0.1,0.8-0.2,1.5-0.7,2.1
	c-0.3,0.2-0.7,0.3-1,0.3c-1.3,0.2-2.6,0.4-3.9,0.4c-2.2,0-4.5-0.5-6.4,0.5c-1.9,1-2.8,3.2-3.7,5.2c-1.3,2.9-3.1,5.5-5.2,7.9
	c-2.3,2.6-5.3,5.1-5.9,8.6c0,0.1,0,0.2,0,0.2c-1.8,0.8-3.7,2.8-5,3.7c-2.5,1.9-4.9,3.9-7.3,6c-2.4,2.2-5.5,4.9-7,7.8
	c-0.7,1.3-1.7,2.4-2.9,3.2c-2.4,1.5-5.5,0.7-8.1-0.1c-7.4-2.3-14.9-4.7-21.9-8.2c-0.3-0.2-0.8-0.3-1.2-0.3c-0.2,0.1-0.4,0.2-0.6,0.4
	c-0.1-0.1-0.1-0.2-0.2-0.2c-1.9-2-4.8-2.1-5.9-5.1c-0.3-1-0.5-1.9-0.6-2.9c-0.7-2.9-1.7-5.6-3.2-8.2c-0.2-0.5-0.6-1-1-1.3
	c-0.9-0.4-2-0.1-2.5,0.8c-0.5,0.8-0.7,1.8-0.5,2.8c0.1,1.1,0.2,2.3-0.5,3c-0.3,0.3-0.7,0.5-1.1,0.6c-2.4,0.8-5.1,0.1-7.3-1.1
	s-4.3-2.7-6.5-3.9c-1.2-0.6-2.4-1.2-3.6-1.7c-1.3-0.5-3.1-0.9-3.8,0.3c-0.6,1,0,2.2,0.7,3.1c1.1,1.6,2.4,3,3.9,4.3
	c4.4,3.8,9.8,5.9,14.9,8.5c4.4,2.3,8.7,5,12.5,8.1c-0.2,0.5-0.2,1-0.3,1.4c0,1.9,0.8,3.8,2.3,5.1c1.4,1.2,3.1,2.3,4.8,3.1
	c8.9,4.5,17.8,8.8,26.8,13c0.6,0.3,1.2,0.5,1.9,0.6c1.8,0,3-1.9,4.5-3s3.3-1.4,5.1-2c3.1-1,5.9-3,8.5-5l8.6-6.3
	c4.3-3.1,8.7-6.5,12.3-10.4c0.5,0.9,1.1,1.8,1.9,2.4c-0.7,1.5,0.8,3.1,1.1,4.7c0.1,1.1,0.2,2.2,0.1,3.2c0.1,1.6,0.4,3.1,0.8,4.7
	c0.4,2.5,0.6,5,0.6,7.6c0,2.8,0.1,5.7,0.1,8.5c0.1,3.7,0.1,7.4-0.7,10.9c-1.1,4.9-3.7,9.5-3.5,14.5c0.2,0.9,0.1,1.9-0.3,2.8
	c-2.2,4-3.9,8.5-6.3,12.5c-0.7,1-1.3,2-1.7,3.1c-0.3,1.2-0.2,2.4,0.3,3.5c-0.9,1.6-1.5,3.4-1.5,5.3c-0.2,4.6,1.7,8.9,2.7,13.4
	c0.8,4.1,0.8,8.4,1,12.6c0.6,19.7,4.6,39.2,5.5,59c0.4,9.1,0.1,18.2-0.8,27.3c-0.6,5.8-1.5,11.7-1.8,17.5c-1,16.7,2.6,33.2,6.2,49.5
	c1.1-1.2,2.6-2,4.2-2.2c-0.4,1.6-1,3.7-1.6,5.3c-0.9,0.1-1.7,0.4-2.5,0.9c-2.1,1.3-2.8,3.9-4,6.1c-2.7,4.7-7.9,7-12.1,10.2
	c-2,1.5-4.1,3.9-3.5,6.4c7.4,2.1,15.5,3.9,22.6,1.1c2.9-1.2,5.6-3.1,8.7-3.2c2.4-0.1,4.8,0.9,7,0.2c0.6-0.1,1.1-0.5,1.4-0.9
	c0.3-0.5,0.4-1.1,0.4-1.6c0.2-3.8,0.2-7.6-0.1-11.4c-0.2-3.2,0.2-5.7-2.6-6.1c-0.7-1.6-1.2-3.3-1.5-5c0-0.3-0.1-0.6-0.1-1
	c0.7,0,1.5-0.1,2.2-0.2c0.5-0.1,0.9-0.2,1.3-0.3c-0.1-0.6-0.3-1.1-0.4-1.7c-0.2-1.1-0.4-2.2-0.6-3.4s-0.3-2.3-0.3-3.4
	c0-0.6-0.1-1.1-0.1-1.7c-0.1-1.1-0.1-2.3-0.1-3.4c0-1.1,0-2.3,0.1-3.4c0.1-1.1,0.1-2.3,0.2-3.4c0.2-2.9,0.5-5.7,0.8-8.6
	c0.9-8.4,1.7-16.7,2.6-25.1c0.3-2.5,0.5-5,0.5-7.5c0-1.5,0-3-0.2-4.5c-0.4-3.6-1.6-7.3-1.7-10.9c0-0.6,0-1.2,0.1-1.8
	c0.1-0.6,0.2-1.2,0.3-1.8c0.1-0.3,0.2-0.6,0.3-1c0.2-0.6,0.4-1.3,0.7-1.9c0.1-0.3,0.2-0.6,0.3-1c0.3-1.4,0.5-2.8,0.6-4.2
	c0-0.5,0.1-0.9,0.1-1.4l1-19.7c0.2-3.2,0.4-6.6,1.7-9.4c0.6-1.2,1.4-2.4,2.4-3.3c-0.3-0.7,0-1.8,0.7-2c0.8,10.1,0.7,20.2-0.3,30.2
	c-0.4,3.2-0.9,6.3-1.1,9.5c-0.3,7,1.3,13.9,1.8,20.9c0.6,7,0,14.2,0,21.2c-0.1,12.2,1.3,24.3,2.7,36.4l0.8,0.5
	c0,1.1,0.1,2.2,0.1,3.2c0,0.3,0,0.7,0.1,1h-0.4c-1.6,0.1-3.1,1-3.9,2.4c-0.8,1.4-1.4,2.9-1.8,4.5c-0.4,1.2-0.6,2.4-0.5,3.6
	c0.3,2.3,2.3,4,2.9,6.3c1,4.1-3.2,8.5-1.3,12.3c1.2,2.4,4.2,3.1,6.9,3.5c4,0.6,8.7,1.1,11.8-1.4c1.8-1.5,2.7-3.6,2.7-5.9
	c0-3-1.8-5.6-2.6-8.4c-1.1-4,0.6-9.4-1.2-13.1c-0.1-0.4-0.4-0.7-0.7-1.1h0.6c-0.1-1.4-0.3-2.7-0.4-4l1.4-0.7
	c1.4-0.7,3.1-1.2,4.6-0.7c-0.6-7-0.7-14.6,0.9-21.4c1.3-5.3,3.6-10.4,4.7-15.8c0.8-4.4,0.9-9,0.9-13.5c0-8.4,0-16.9-1.5-25.1
	c-0.6-3.3-1.4-6.7-0.8-10c0.4-2.2,1.4-4.2,2-6.3c1.4-5,0.4-10.4,1.2-15.5c2-12.2,3-25,4.6-37.3c0.8-7,1-14,0.8-21v-0.1l3-5.7
	c2.1-4,4.3-8.2,5.6-12.5c0.5,0.6,0.8,1.3,1.1,2l13.2-21.2c0.9-1.3,1.5-2.6,2-4c0.3-1,0.4-2.1,0.6-3.1c0.6-2.7,2-5.2,3.2-7.7
	C912.9,309.2,913.8,301.1,912.1,293.3z M892.4,304c-0.6,3.5-1.5,6.9-2.5,10.3c-1.7,5.8-3.8,11.5-5.8,17.2l-1.7,4.9
	c-0.6,2-1.5,3.8-2.7,5.5c-0.3,0.4-0.5,0.9-0.7,1.3c-1.8-6.5,0.2-13.8-0.3-20.7c-0.3-5.2-2-10.5-0.7-15.6c0.8-3.4,2.9-6.3,4.4-9.5
	c1.4-3,2.2-6.2,3.8-9c0,0.1,0,0.1,0.1,0.2c1.4,3.5,3,6.9,5,10.2c0.5,0.7,0.9,1.6,1.2,2.4C892.6,302.1,892.6,303.1,892.4,304
	L892.4,304z"/>
<path class="st13" d="M737,268.9c-0.3-1-0.5-1.9-0.6-2.9c-0.5-2.9-1.9-5.6-3.3-8.2c-0.2-0.5-0.6-1-1.1-1.4c-0.9-0.4-2-0.1-2.6,0.8
	c-0.5,0.8-0.7,1.8-0.6,2.8c0.1,1.1,0.2,2.3-0.5,3c-0.3,0.3-0.7,0.5-1.1,0.6c-2.5,0.8-5.3,0.1-7.7-1.1c-2.4-1.1-4.5-2.7-6.8-3.9
	c-1.2-0.6-2.5-1.2-3.8-1.7c-1.3-0.5-3.2-0.9-4,0.3c-0.6,1,0,2.2,0.7,3.1c1.2,1.6,2.5,3,4.1,4.3c4.5,3.8,10.3,5.9,15.6,8.5
	c6,2.9,11.5,6.6,16.6,10.9c0.5-0.6,0.8-1.3,0.8-2c0.4-2.1,2.2-6.2,0.4-8C741.2,272.1,738.1,271.9,737,268.9z"/>
<path class="st12" d="M820.9,546.8c4.5,3.4,10.1,4.9,15.8,4.3c1.2-0.1,2.5-0.5,2.9-1.6c0.1-0.7,0.1-1.3-0.2-1.9
	c-0.9-2-1.6-4.2-2-6.3c-0.3-2-0.2-4.3-1.9-5.5c-2.4-1.7-8.7-1.6-10.2,1C824.9,537.3,822.5,548.1,820.9,546.8z"/>
<path class="st12" d="M854.6,537.3c-0.2,0.8,0.3,1.7,1.1,1.9c0.1,0,0.1,0,0.2,0c3.8,1.2,7.8,1.8,11.8,1.9l-0.8-7.8
	c0.1-0.7-0.4-1.2-1.1-1.3c-0.1,0-0.1,0-0.2,0c-2.3-0.4-7.2-1.9-9.4-1.1C853.8,531.8,854.7,534.9,854.6,537.3z"/>
<path class="st13" d="M831.3,226.7c0.6,1.6,1,3.4,0.9,5.1c0.2,6.3-0.9,13-5.4,17.5c5.1-1.5,10.8-0.6,15.6-2.8c2.2-1,4.1-2.6,6.2-3.9
	c3.7-2.2,8-3.3,11.9-5.3c3.8-2,7.4-5.3,7.6-9.6c-1.7-1.7-4.4-1.9-6.6-3c-2.4-1.1-4.1-3.2-5.8-5.1c-2-2.2-3.7-4.5-5.1-7
	c-1.5-2.5-2-5.5-1.7-8.3c-4.3,0.7-7.4,4.4-11.4,5.9c-1.6,0.6-3.3,0.9-4.8,1.6c-2.2,1-6.6,4.3-6.7,6.9
	C826,221.6,830.1,224.2,831.3,226.7z"/>
<path class="st14" d="M831.3,226.7c0.6,1.6,1,3.4,0.9,5.1c0.2,6.3-0.9,13-5.4,17.5c5.1-1.5,10.8-0.6,15.6-2.8c2.2-1,4.1-2.6,6.2-3.9
	c3.7-2.2,8-3.3,11.9-5.3c3.8-2,7.4-5.3,7.6-9.6c-1.7-1.7-4.4-1.9-6.6-3c-2.4-1.1-4.1-3.2-5.8-5.1c-2-2.2-3.7-4.5-5.1-7
	c-1.5-2.5-2-5.5-1.7-8.3c-4.3,0.7-7.4,4.4-11.4,5.9c-1.6,0.6-3.3,0.9-4.8,1.6c-2.2,1-6.6,4.3-6.7,6.9
	C826,221.6,830.1,224.2,831.3,226.7z"/>
<path class="st16" d="M886.3,390.2c-1.6,12.3-2.7,25.2-4.8,37.4c-0.8,5.1,0.2,10.5-1.3,15.5c-0.6,2.1-1.7,4.2-2.1,6.3
	c-0.7,3.3,0.2,6.7,0.8,10c1.5,8.3,1.5,16.8,1.5,25.2c0,4.5,0,9.1-0.9,13.6c-1.1,5.4-3.5,10.5-4.9,15.8c-1.7,6.8-1.6,14.5-1,21.5
	c-1.6-0.6-3.3,0-4.8,0.7c-1.5,0.7-3,1.6-4.7,1.7c-2.3,0.2-4.4-0.9-6.3-2.1c-1.5-0.8-2.8-1.6-4.3-2.5c-1.4-12.1-2.9-24.3-2.8-36.6
	c0-7.1,0.6-14.2,0-21.3c-0.6-7.1-2.3-14-1.9-21c0.2-3.2,0.7-6.3,1.1-9.5c1.2-10.2,1.1-20.1,0.3-30.4c-0.7,0.2-1,1.3-0.8,2
	c-1.1,0.9-1.9,2.1-2.5,3.3c-1.3,2.8-1.6,6.3-1.8,9.4l-1.1,19.8c0,1.9-0.3,3.8-0.7,5.6c-0.4,1.3-0.9,2.5-1.3,3.8
	c-1.2,4.7,0.7,9.6,1.4,14.5c0.5,4,0.1,8.1-0.4,12.1l-2.7,25.2c-1,9.2-1.9,18.5,0,27.5c0.1,0.6,0.3,1.1,0.4,1.7
	c-0.5,0.1-0.9,0.2-1.4,0.3c-1.7,0.2-3.4,0.2-5,0c-1.6-0.2-3.1-0.4-4.7-0.6c-3.7-0.4-7.4-0.6-9.8,2.1c-3.7-16.4-7.5-33-6.5-49.7
	c0.4-5.9,1.3-11.7,1.9-17.6c1-9.1,1.3-18.2,0.9-27.3c-0.8-19.8-5-39.4-5.7-59.2c-0.1-4.2-0.1-8.5-1-12.6c-1-4.5-2.9-8.9-2.8-13.5
	s3.6-9.6,8.4-9.4c13.2,0.7,25.2-6.3,38.3-7.5c6-0.6,12-1.4,17.9-0.3s11.8,4.3,14.1,9.6c1.3,2.9,1.4,6.1,1.4,9.3
	C887.2,372.3,887.5,381.3,886.3,390.2z"/>
<path class="st3" d="M820.2,545.5c-2.2,1.3-2.9,3.9-4.2,6.1c-2.8,4.7-8.2,7.1-12.7,10.3c-2.1,1.5-4.3,3.9-3.6,6.4
	c7.7,2.1,16.1,3.9,23.6,1.1c3-1.2,5.9-3.1,9.1-3.2c2.5-0.1,5,0.9,7.3,0.2c0.6-0.1,1.1-0.5,1.5-0.9c0.3-0.5,0.4-1.1,0.4-1.6
	c0.2-3.8,0.2-7.6-0.1-11.5c-0.2-3.7,0.3-6.4-4.1-6.2C832.4,546.4,824.6,542.9,820.2,545.5z"/>
<path class="st3" d="M857.3,538.9c-0.9-0.4-1.9-0.6-2.9-0.6c-1.7,0.1-3.2,1-4.1,2.4c-0.9,1.4-1.5,2.9-1.9,4.5
	c-0.4,1.2-0.6,2.4-0.5,3.6c0.3,2.3,2.4,4,3,6.3c1,4.1-3.3,8.6-1.4,12.3c1.3,2.4,4.4,3.1,7.2,3.5c4.2,0.6,9,1.2,12.4-1.5
	c1.8-1.4,2.9-3.6,2.8-5.9c-0.1-3-1.9-5.6-2.7-8.5c-1.2-4,0.6-9.4-1.3-13.1C866.4,538.9,860.6,539.9,857.3,538.9z"/>
<ellipse class="st13" cx="832.7" cy="202.9" rx="21.7" ry="21"/>
<path class="st3" d="M844.2,237.3c-2.3-1-5-1.2-7.4-0.5l-2-3.3c-0.8-1.5-2.1-3.1-3.8-3.1c-1.3,0.2-2.4,1-2.8,2.3
	c-0.4,1.2-0.5,2.4-0.4,3.7c0.1,0.8-0.2,1.6-0.8,2.1c-0.3,0.2-0.7,0.3-1.1,0.3c-1.4,0.2-2.7,0.4-4.1,0.4c-2.3,0-4.7-0.5-6.7,0.5
	c-2,1-2.9,3.2-3.9,5.3c-1.4,2.9-3.2,5.5-5.4,7.9c-2.5,2.6-5.5,5.1-6.2,8.6c-0.3,1.5,1.1,2.6,2.2,3.6c4.4,4.2,10.5,6.8,13.8,11.9
	c0.8,1.2,1.4,2.5,2.6,3.4c-0.7,1.5,0.8,3.1,1.2,4.7c0.1,1.1,0.2,2.2,0.1,3.2c0.1,1.6,0.4,3.1,0.8,4.7c0.4,2.5,0.6,5,0.6,7.6l0.1,8.5
	c0.1,3.7,0.1,7.4-0.7,11c-1.1,4.9-3.9,9.5-3.7,14.5c0.2,0.9,0.1,1.9-0.3,2.8c-2.3,4-4.1,8.5-6.5,12.5c-0.7,1-1.3,2-1.7,3.1
	c-0.7,2.3,0.7,4.8,2.7,6.2c2,1.4,4.5,2,6.9,2.5c22.5,4.2,45.9-0.8,67.2-9.1c0.6-0.2,1.1-0.4,1.5-0.8c1.6-1.5,0.3-3.9-0.6-5.8
	c-3.3-7.1-0.7-15.4-1.2-23.1c-0.3-5.2-2.1-10.5-0.8-15.6c0.8-3.4,3.1-6.4,4.6-9.5c1.7-3.5,2.6-7.3,4.8-10.4c1.6-2.2,3.6-4.1,5.7-5.8
	l13.6-11.7c-1.8-2.8-1.9-6.4-2.7-9.6c-0.7-2.8-2.2-5.3-3.1-8c-1.2-3.8-1.4-8.1-3.9-11.2c-1-1.2-2.3-2.2-3.4-3.3
	c-1.3-1.3-2.3-2.8-3.6-4.1c-3.8-3.7-9.4-4.9-14.8-5.4c-5.3-0.5-10.9-0.5-15.8-2.6c-2.4-1-5-2.5-7.5-1.8c-2,0.6-3.3,2.5-4.1,4.4
	s-1.4,3.9-2.7,5.4C849.5,235.2,846.6,236.5,844.2,237.3z"/>
<path class="st3" d="M779.5,279.3c-0.8,1.3-1.8,2.4-3,3.2c-2.5,1.5-5.7,0.7-8.5-0.1c-7.8-2.3-15.6-4.7-22.8-8.3
	c-0.4-0.2-0.8-0.3-1.2-0.3c-0.3,0.1-0.6,0.3-0.8,0.6c-1.1,1.2-2.2,2.5-3.1,3.9c-1,1.3-1.6,2.8-1.8,4.4c0,2,0.9,3.8,2.4,5.1
	c1.5,1.2,3.2,2.3,5,3.1c9.3,4.5,18.6,8.8,27.9,13.1c0.6,0.3,1.3,0.5,1.9,0.6c1.9,0,3.1-1.9,4.6-3c1.5-1.1,3.5-1.4,5.3-2
	c3.3-1,6.1-3,8.9-5l8.9-6.3c7.8-5.5,16.1-11.5,19.5-20.2l-10.9-3.5c-3.3-1-6.7-2.6-10.1-3.2c-2.5-0.5-5.5,2.7-7.4,4.1
	c-2.6,1.9-5.2,3.9-7.6,6.1C784.4,273.6,781,276.4,779.5,279.3z"/>
<path class="st13" d="M882.5,348.4c-3.1,1.2-6.6-0.6-9.8-0.1c-1.5,0.3-3,0.9-4.3,1.7l-9.5,5.1c-0.6,0.3-1.2,1.1-0.7,1.5
	c0.1,0.1,0.3,0.2,0.5,0.2c3.2,0.4,6.1-1.5,9.3-2c1.4-0.2,2.8-0.2,4.2-0.2c0.2,0,0.5,0,0.7,0.1c0.5,0.3,0.7,0.8,0.7,1.3
	c0,0.5-0.2,1-0.2,1.5c0.1,1.2,0.6,2.3,1.4,3.2c3,4.2,6.4,8.2,10,11.9c0.9-1.1,1.7-2.4,2.4-3.7l3.1-5.7c3.2-5.8,6.6-11.9,7.1-18.5
	c-2.3-0.7-6.7-3.1-9.1-1.9C885.8,344.3,885.3,347.5,882.5,348.4z"/>
<path class="st11" d="M829.9,199.5c6.1,0.6,11.7,3.4,17.2,6.2c-0.9,1.4,0.3,3.5,1.9,4c1.7,0.5,3.5-0.2,4.9-1.2c1.4-1,2.6-2.3,4-3.2
	c1.2-0.8,2.8-1.7,2.9-3.1c0.1-1.4-1.3-2.5-2.1-3.7c-3.2-4.3,0.3-11-2.9-15.2c-1.6-2.1-4.4-2.9-6.9-4c-3.5-1.4-6.6-3.5-10.1-4.9
	s-7.5-2.2-11-0.8c-6.5,2.5-8.9,11.2-15.5,13.4c-0.7,0.1-1.4,0.5-1.8,1c-0.8,1.2-1.9,8.5-1.7,10c0.3,2.5,1,3.4,3.6,4.2
	C817.8,203.7,824.1,198.9,829.9,199.5z"/>
<path class="st3" d="M909.2,266.6c2,1.7,3.5,3.9,4.5,6.3c0.8,2.3,1.4,4.6,1.9,7c1.1,4.5,3,8.9,4,13.5c1.7,7.8,0.8,15.9-2.5,23.2
	c-1.2,2.5-2.7,5-3.3,7.7c-0.2,1-0.3,2.1-0.7,3.2c-0.5,1.4-1.2,2.8-2.1,4l-13.7,21.4c-1.1-2.5-3.2-4.5-5.9-5.4
	c-2.6-0.9-5.5-1-8.2-0.5c1-1.6,1.5-3.3,2.5-4.9c0.6-0.8,1.1-1.7,1.6-2.6c0.5-1,0.9-1.9,1.2-3l1.8-4.9c2.1-5.7,4.2-11.5,6-17.3
	c1.1-3.4,2-6.9,2.6-10.4c0.2-0.9,0.2-1.8,0.1-2.7c-0.3-0.9-0.7-1.7-1.3-2.5c-2-3.3-3.7-6.7-5.2-10.2c-1.1-2.5-2.2-5.2-1.2-7.8
	c0.6-1.3,1.5-2.5,2.7-3.4C898.7,273.2,903.8,269.6,909.2,266.6z"/>
<path class="st14" d="M839.5,540l1-2c-1.9-9-1-18.3,0-27.5l2.7-25.2c0.4-4,0.8-8.1,0.4-12.1c-0.6-4.9-2.6-9.7-1.4-14.5
	c0.3-1.3,0.9-2.5,1.3-3.8c0.4-1.8,0.7-3.7,0.7-5.6l1.1-19.8c0.2-3.2,0.5-6.6,1.8-9.4v-0.5l-3.4-28.7L834.5,540H839.5z"/>
<path class="st17" d="M761.2,552.4c2.5-4.5-0.3-9.9-3.6-13.9c-3.3-4-7.2-8.1-7.1-13.2c0.1-7.3,8.1-11.6,14.5-15.4
	c4.7-2.9,9.1-6.3,13-10.1c1.6-1.5,3-3.2,4-5.2c1.3-2.8,1.3-6.1,1.2-9.2c-0.3-10.4-0.8-20.8-1.6-31.1"/>
<path class="st9" d="M793.8,453.7c-0.2-3.9-2.4-7.4-5.9-9.3l-2.6,5l0.1-6.1c-1.3-0.4-2.6-0.5-3.9-0.5c-6.5,0.3-11.4,5.6-11.1,11.9
	c0.3,6.2,5.8,11.1,12.3,10.8C789.1,465.2,794,459.9,793.8,453.7L793.8,453.7z"/>
<path class="st2" d="M772.8,530.5c-3,5.6-10,7.7-15.8,4.9c-5.7-2.9-8-9.7-5-15.3c3-5.6,10-7.7,15.8-4.9c2.6,1.3,4.6,3.5,5.6,6.1
	l-7.3,5.8l8.1-1.8C774.1,527.2,773.7,528.9,772.8,530.5z"/>
<path class="st18" d="M767,508.5c-6.5,0.4-12.1-4.3-12.5-10.5c-0.4-5.5,3.3-10.4,8.8-11.8l-0.1,4.7l2.7-5.1l0,0
	c6.5-0.3,12,4.5,12.3,10.8c0,0,0,0,0,0c0.1,1.3-0.1,2.6-0.5,3.9C776.2,505,772,508.2,767,508.5z"/>
<path class="st8" d="M795.5,490.1c-6.5,0.2-11.9-4.7-12.1-10.9c-0.2-6.3,4.8-11.5,11.3-11.7c2.1-0.1,4.2,0.4,6.1,1.4l-2.1,5.5l4.3-4
	c2.3,2,3.6,4.8,3.8,7.8c0.1,1.1,0,2.1-0.3,3.1C805.2,486.3,800.8,489.9,795.5,490.1z"/>
<path class="st14" d="M792.2,456.7c-2.7,0.3-5.3,1.1-8.1,1.3s-5.7-0.5-7.4-2.5c-0.9-1.1-1.4-2.5-2.2-3.7c-0.7-1.1-1.8-2-3-2.7
	c-2.8,5.6-0.3,12.4,5.5,15.1s12.8,0.3,15.6-5.3c0.4-0.7,0.6-1.5,0.8-2.2C793.1,456.6,792.6,456.6,792.2,456.7z"/>
<path class="st14" d="M795.5,490.1c-6.5,0.3-12-4.5-12.3-10.7c-0.1-1.9,0.3-3.7,1.1-5.4c0.9,0.6,1.7,1.4,2.4,2.3
	c0.8,1.2,1.3,2.6,2.3,3.8c1.8,2.1,5,2.8,7.8,2.6c2.8-0.1,5.6-0.9,8.4-1.2c0.4,0,0.8-0.1,1.2-0.1
	C805.2,486.3,800.8,489.9,795.5,490.1z"/>
<path class="st14" d="M767,508.5c-6.5,0.3-12-4.5-12.3-10.7c-0.1-1.8,0.3-3.6,1-5.2c1,0.6,1.8,1.4,2.5,2.3c0.9,1.2,1.5,2.7,2.6,3.8
	c2,2.1,5.3,2.9,8.3,2.8c3-0.1,5.7-0.8,8.6-1C776.3,505.1,772,508.3,767,508.5z"/>
<path class="st14" d="M772.8,530.5c-2.6,5.7-9.6,8.3-15.5,5.7c-5.9-2.6-8.6-9.3-5.9-15l0,0c1,0.6,1.8,1.4,2.6,2.2
	c1.1,1.3,1.9,2.8,3.1,4c2.4,2.3,6.3,3.2,9.7,3.3C768.9,530.8,770.8,530.7,772.8,530.5z"/>
<path class="st19" d="M743.5,547.3c0,0,9.3-0.3,12.1-2.2c2.8-1.9,14.2-4.2,14.9-1.1s13.9,15.4,3.5,15.4c-10.5,0-24.3-1.6-27.1-3.2
	C744.1,554.5,743.5,547.3,743.5,547.3z"/>
<path class="st20" d="M774.2,558.3c-10.5,0.1-24.3-1.6-27.1-3.2c-2.1-1.3-3-5.7-3.3-7.8h-0.3c0,0,0.6,7.2,3.3,8.9s16.6,3.3,27.1,3.2
	c3,0,4.1-1.1,4-2.6C777.6,557.7,776.4,558.3,774.2,558.3z"/>
<path class="st17" d="M111.9,561.3c-2.5-4.5,0.3-9.9,3.6-13.9c3.3-4,7.2-8.1,7.1-13.2c-0.1-7.3-8.1-11.6-14.5-15.4
	c-4.7-2.9-9.1-6.3-13-10.1c-1.6-1.5-3-3.2-4-5.2c-1.3-2.8-1.3-6.1-1.2-9.2c0.3-10.4,0.8-20.8,1.6-31.1"/>
<path class="st2" d="M79.3,462.6c0.2-3.9,2.4-7.4,5.9-9.3l2.6,5l-0.1-6.1c1.3-0.4,2.6-0.5,3.9-0.5c6.5,0.3,11.4,5.6,11.1,11.9
	c-0.3,6.2-5.8,11.1-12.3,10.8C84,474.1,79,468.8,79.3,462.6L79.3,462.6z"/>
<path class="st9" d="M100.2,539.4c3,5.6,10,7.7,15.8,4.9c5.7-2.9,8-9.7,5-15.3c-3-5.6-10-7.7-15.8-4.9c-2.6,1.3-4.6,3.5-5.6,6.1
	l7.3,5.8l-8-1.8C99,536,99.4,537.8,100.2,539.4z"/>
<path class="st8" d="M106,517.4c6.5,0.4,12.1-4.3,12.5-10.5c0.4-5.5-3.3-10.4-8.8-11.8l0.1,4.7l-2.7-5.1l0,0
	c-6.5-0.3-12,4.5-12.3,10.8c0,0,0,0,0,0c-0.1,1.3,0.1,2.6,0.5,3.9C96.8,513.9,101.1,517.1,106,517.4z"/>
<path class="st18" d="M77.5,499c6.5,0.2,11.9-4.7,12.1-10.9c0.2-6.3-4.8-11.5-11.3-11.7c-2.1-0.1-4.2,0.4-6.1,1.4l2.1,5.5l-4.3-4
	c-2.3,2-3.7,4.8-3.8,7.8c-0.1,1.1,0,2.1,0.3,3.1C67.8,495.2,72.3,498.8,77.5,499z"/>
<path class="st14" d="M80.9,465.6c2.7,0.3,5.3,1.1,8.1,1.3c2.7,0.2,5.7-0.5,7.4-2.5c0.9-1.1,1.4-2.5,2.2-3.7c0.7-1.1,1.8-2,3-2.7
	c2.8,5.6,0.3,12.4-5.5,15.1c-5.8,2.7-12.8,0.3-15.6-5.3c-0.4-0.7-0.6-1.5-0.8-2.2C80,465.5,80.4,465.5,80.9,465.6z"/>
<path class="st14" d="M77.5,499c6.5,0.3,12-4.5,12.3-10.7c0.1-1.9-0.3-3.7-1.1-5.4c-0.9,0.6-1.7,1.4-2.4,2.3
	c-0.8,1.2-1.3,2.6-2.3,3.8c-1.8,2.1-5,2.8-7.8,2.6c-2.8-0.1-5.6-0.9-8.4-1.2c-0.4,0-0.8-0.1-1.2-0.1C67.9,495.2,72.3,498.8,77.5,499
	z"/>
<path class="st14" d="M106,517.4c6.5,0.3,12-4.5,12.3-10.7c0.1-1.8-0.3-3.6-1-5.2c-1,0.6-1.8,1.4-2.5,2.3c-0.9,1.2-1.5,2.7-2.5,3.8
	c-2,2.1-5.3,2.9-8.3,2.8c-3-0.1-5.7-0.8-8.6-1C96.8,514,101.1,517.2,106,517.4z"/>
<path class="st14" d="M100.2,539.4c2.6,5.7,9.6,8.3,15.5,5.7c5.9-2.6,8.6-9.3,5.9-15c-1,0.6-1.8,1.4-2.6,2.2c-1.1,1.3-1.9,2.8-3.1,4
	c-2.4,2.3-6.3,3.2-9.7,3.3C104.2,539.8,102.2,539.6,100.2,539.4z"/>
<path class="st19" d="M129.6,556.2c0,0-9.3-0.3-12.1-2.2c-2.8-1.9-14.2-4.2-14.9-1.1c-0.7,3.1-13.9,15.4-3.5,15.4
	c10.5,0,24.3-1.6,27.1-3.2S129.6,556.2,129.6,556.2z"/>
<path class="st20" d="M98.9,567.2c10.5,0.1,24.3-1.6,27.1-3.2c2.1-1.3,3-5.7,3.3-7.8h0.3c0,0-0.6,7.2-3.3,8.9
	c-2.8,1.7-16.6,3.3-27.1,3.2c-3,0-4.1-1.1-4-2.6C95.5,566.6,96.7,567.2,98.9,567.2z"/>
</svg>
