<svg id="Layer1" enable-background="new 0 0 256 256" height="512" viewBox="0 0 256 256" width="512" xmlns="http://www.w3.org/2000/svg"><circle cx="178" cy="78.146" fill="#d7e057" r="40.641"/><path d="m178 36.006c-23.236 0-42.141 18.904-42.141 42.141s18.904 42.141 42.141 42.141 42.141-18.904 42.141-42.141-18.905-42.141-42.141-42.141zm0 81.281c-21.582 0-39.141-17.559-39.141-39.141s17.559-39.14 39.141-39.14 39.141 17.559 39.141 39.141-17.559 39.14-39.141 39.14z" fill="#3a312a"/><path d="m177.746 15.021c-.829 0-1.5.671-1.5 1.5v8.149c0 .829.671 1.5 1.5 1.5s1.5-.671 1.5-1.5v-8.149c0-.828-.672-1.5-1.5-1.5z" fill="#3a312a"/><path d="m178.254 130.123c-.829 0-1.5.671-1.5 1.5v8.149c0 .829.671 1.5 1.5 1.5s1.5-.671 1.5-1.5v-8.149c0-.829-.671-1.5-1.5-1.5z" fill="#3a312a"/><path d="m222.456 33.331c-.586-.586-1.535-.586-2.121 0l-5.762 5.762c-.586.585-.586 1.535 0 2.121.293.293.677.439 1.06.439s.768-.146 1.06-.439l5.762-5.762c.587-.586.587-1.535.001-2.121z" fill="#3a312a"/><path d="m141.427 115.08c-.586-.586-1.535-.586-2.121 0l-5.762 5.762c-.586.585-.586 1.535 0 2.121.293.293.677.439 1.061.439s.768-.146 1.06-.439l5.762-5.762c.586-.586.586-1.535 0-2.121z" fill="#3a312a"/><path d="m239.625 76.392h-8.149c-.829 0-1.5.671-1.5 1.5s.671 1.5 1.5 1.5h8.149c.829 0 1.5-.671 1.5-1.5s-.671-1.5-1.5-1.5z" fill="#3a312a"/><path d="m124.524 76.901h-8.149c-.829 0-1.5.671-1.5 1.5s.671 1.5 1.5 1.5h8.149c.829 0 1.5-.671 1.5-1.5s-.671-1.5-1.5-1.5z" fill="#3a312a"/><path d="m222.816 120.481-5.762-5.762c-.586-.586-1.535-.586-2.121 0-.586.585-.586 1.535 0 2.121l5.762 5.762c.293.293.677.439 1.061.439s.768-.146 1.061-.439c.585-.585.585-1.535-.001-2.121z" fill="#3a312a"/><path d="m141.067 39.453-5.762-5.762c-.586-.586-1.535-.586-2.121 0-.586.585-.586 1.535 0 2.121l5.762 5.762c.293.293.677.439 1.06.439.384 0 .768-.146 1.061-.439.586-.586.586-1.535 0-2.121z" fill="#3a312a"/><path d="m47.911 26.198c-.974 11.564-13.025 13.39-13.025 13.39 10.347.487 12.925 14.059 12.925 14.059.221-9.677 13.321-14.202 13.321-14.202-9.813-.587-13.221-13.247-13.221-13.247z" fill="#d7e057"/><path d="m61.222 37.947c-8.604-.514-11.832-12.024-11.863-12.14-.19-.702-.847-1.158-1.583-1.102-.725.066-1.298.642-1.359 1.367-.86 10.215-11.313 11.963-11.754 12.032-.763.115-1.313.79-1.273 1.561.04.77.657 1.384 1.428 1.421 9.028.425 11.499 12.718 11.523 12.842.137.711.759 1.217 1.472 1.217.042 0 .084-.001.126-.005.764-.064 1.357-.693 1.375-1.459.194-8.508 12.191-12.777 12.313-12.819.675-.235 1.092-.915.994-1.623-.101-.708-.685-1.249-1.399-1.292zm-13.565 10.346c-1.357-3.13-3.709-6.907-7.587-8.876 2.931-1.404 6.409-3.913 8.202-8.272 1.551 3.071 4.2 6.88 8.334 8.722-3.008 1.639-6.923 4.405-8.949 8.426z" fill="#3a312a"/><path d="m26.213 43.179c-.689 8.179-9.213 9.47-9.213 9.47 7.318.344 9.142 9.944 9.142 9.944.156-6.844 9.422-10.045 9.422-10.045-6.941-.415-9.351-9.369-9.351-9.369z" fill="#d7e057"/><path d="m35.654 51.051c-5.766-.345-7.972-8.185-7.994-8.264-.19-.702-.85-1.167-1.582-1.102-.726.065-1.299.642-1.36 1.368-.579 6.87-7.647 8.066-7.942 8.113-.763.115-1.313.79-1.273 1.561.04.77.657 1.384 1.427 1.421 6.036.284 7.724 8.644 7.739 8.726.135.713.759 1.22 1.472 1.22.042 0 .083-.001.125-.005.765-.063 1.358-.694 1.376-1.461.13-5.709 8.332-8.634 8.413-8.662.677-.234 1.094-.913.996-1.622s-.682-1.25-1.397-1.293zm-9.585 6.795c-.924-1.886-2.34-3.947-4.447-5.28 1.855-1.041 3.697-2.629 4.871-4.916 1.057 1.874 2.654 3.955 4.941 5.224-1.849 1.1-3.989 2.74-5.365 4.972z" fill="#3a312a"/><path d="m26.213 16.521c-.689 8.18-9.213 9.471-9.213 9.471 7.318.344 9.142 9.944 9.142 9.944.156-6.845 9.422-10.045 9.422-10.045-6.941-.416-9.351-9.37-9.351-9.37z" fill="#d7e057"/><path d="m35.654 24.394c-5.767-.345-7.973-8.186-7.994-8.265-.19-.702-.85-1.168-1.582-1.102-.726.065-1.299.642-1.36 1.368-.579 6.871-7.647 8.067-7.942 8.114-.763.115-1.313.79-1.273 1.561.04.77.657 1.384 1.428 1.421 6.035.284 7.723 8.644 7.739 8.726.135.713.759 1.22 1.472 1.22.042 0 .083-.001.125-.005.765-.063 1.358-.694 1.376-1.461.13-5.709 8.332-8.634 8.413-8.662.676-.234 1.094-.913.996-1.622-.099-.709-.683-1.25-1.398-1.293zm-9.585 6.794c-.924-1.885-2.34-3.947-4.447-5.28 1.856-1.041 3.697-2.63 4.871-4.916 1.057 1.874 2.655 3.954 4.941 5.224-1.849 1.101-3.989 2.74-5.365 4.972z" fill="#3a312a"/><path d="m187.356 89.387c-1.266 0-2.517.061-3.76.151-6.776-24.344-29.092-42.214-55.596-42.214-31.878 0-57.72 25.842-57.72 57.72 0 .439.023.872.033 1.308-3.095-.695-6.309-1.074-9.614-1.074-24.134 0-43.699 19.564-43.699 43.699 0 24.134 19.565 43.699 43.699 43.699h4.901 12.8 109.657v-.018c28.198-.377 50.943-23.339 50.943-51.627 0-28.522-23.122-51.644-51.644-51.644z" fill="#8ac6dd"/><path d="m187.356 87.888c-.837 0-1.7.025-2.653.077-7.483-24.874-30.624-42.141-56.703-42.141-32.477 0-58.932 26.276-59.218 58.687-2.68-.487-5.391-.733-8.083-.733-24.923 0-45.199 20.276-45.199 45.199s20.276 45.199 45.199 45.199h4.901c.829 0 1.5-.671 1.5-1.5s-.671-1.5-1.5-1.5h-4.901c-23.268 0-42.199-18.931-42.199-42.199s18.931-42.199 42.199-42.199c3.096 0 6.22.349 9.285 1.038.45.102.922-.01 1.279-.303.357-.292.56-.733.549-1.194l-.015-.499c-.009-.258-.018-.515-.018-.775 0-31 25.22-56.22 56.22-56.22 25.144 0 47.413 16.908 54.151 41.117.191.688.847 1.143 1.553 1.094 1.387-.1 2.547-.147 3.651-.147 27.65 0 50.144 22.494 50.144 50.144 0 27.275-22.189 49.763-49.463 50.127-.071.001-.14.007-.208.018h-109.427c-.829 0-1.5.671-1.5 1.5s.671 1.5 1.5 1.5h109.657c.085 0 .169-.007.25-.021 28.802-.508 52.193-24.291 52.193-53.123 0-29.306-23.84-53.146-53.144-53.146z" fill="#3a312a"/><path d="m167.297 211.918c-3.4 0-9.351 12.546-9.351 17.71s4.186 9.351 9.351 9.351c5.164 0 9.351-4.187 9.351-9.351s-5.809-17.71-9.351-17.71z" fill="#8ac6dd"/><path d="m174.641 218.165c-1.771-3.534-4.482-7.747-7.345-7.747-4.821 0-10.851 13.928-10.851 19.21 0 5.983 4.868 10.851 10.851 10.851s10.851-4.868 10.851-10.851c.001-3.296-1.888-8.235-3.506-11.463zm-7.345 19.314c-4.329 0-7.851-3.522-7.851-7.851 0-5.058 5.723-16.029 7.851-16.21 1.854 0 7.851 10.719 7.851 16.21.001 4.329-3.522 7.851-7.851 7.851z" fill="#3a312a"/><path d="m218.316 211.918c-3.4 0-9.351 12.546-9.351 17.71s4.187 9.351 9.351 9.351 9.351-4.187 9.351-9.351-5.809-17.71-9.351-17.71z" fill="#8ac6dd"/><path d="m225.661 218.165c-1.77-3.534-4.482-7.747-7.345-7.747-4.821 0-10.851 13.928-10.851 19.21 0 5.983 4.868 10.851 10.851 10.851s10.851-4.868 10.851-10.851c0-3.296-1.888-8.235-3.506-11.463zm-7.345 19.314c-4.329 0-7.851-3.522-7.851-7.851 0-5.058 5.724-16.029 7.851-16.21 1.854 0 7.851 10.719 7.851 16.21 0 4.329-3.521 7.851-7.851 7.851z" fill="#3a312a"/><g fill="#fae6ca"><path d="m52.27 235.297-4.385-4.386c-.563-.563-1.559-.563-2.121 0l-4.385 4.386c-.586.586-.586 1.536 0 2.121.586.586 1.536.586 2.121 0l3.325-3.325 3.325 3.325c.293.293.677.439 1.061.439s.768-.146 1.06-.439c.585-.585.585-1.535-.001-2.121z"/><path d="m52.27 204.599c-.586-.586-1.535-.586-2.121 0l-3.325 3.325-3.325-3.325c-.586-.586-1.535-.586-2.121 0-.586.585-.586 1.536 0 2.121l4.385 4.385c.293.293.677.439 1.06.439s.768-.146 1.061-.439l4.385-4.385c.587-.585.587-1.535.001-2.121z"/><path d="m46.903 201.017h-.006c-.826 0-1.497.667-1.5 1.494l-.146 36.983c-.003.828.665 1.502 1.494 1.506h.006c.826 0 1.497-.667 1.5-1.494l.146-36.983c.004-.829-.665-1.503-1.494-1.506z"/><path d="m36.921 219.948-4.385-4.385c-.586-.586-1.535-.586-2.121 0-.586.585-.586 1.536 0 2.121l3.325 3.325-3.325 3.325c-.586.585-.586 1.536 0 2.121.293.293.677.439 1.061.439s.768-.146 1.061-.439l4.385-4.385c.585-.587.585-1.537-.001-2.122z"/><path d="m59.909 221.008 3.325-3.325c.586-.585.586-1.536 0-2.121-.586-.586-1.535-.586-2.121 0l-4.385 4.385c-.586.585-.586 1.536 0 2.121l4.385 4.385c.293.293.677.439 1.061.439s.768-.146 1.06-.439c.586-.585.586-1.536 0-2.121z"/><path d="m65.322 219.582-36.983-.146h-.006c-.826 0-1.497.667-1.5 1.494-.003.828.665 1.502 1.494 1.506l36.983.146h.006c.826 0 1.497-.667 1.5-1.494.003-.829-.666-1.503-1.494-1.506z"/><path d="m39.072 227.261h-6.202c-.829 0-1.5.671-1.5 1.5s.671 1.5 1.5 1.5h4.702v4.702c0 .829.671 1.5 1.5 1.5s1.5-.671 1.5-1.5v-6.202c0-.829-.672-1.5-1.5-1.5z"/><path d="m60.778 211.756h-4.702v-4.702c0-.829-.671-1.5-1.5-1.5s-1.5.671-1.5 1.5v6.202c0 .829.671 1.5 1.5 1.5h6.202c.829 0 1.5-.671 1.5-1.5s-.671-1.5-1.5-1.5z"/><path d="m61.016 206.928c-.584-.588-1.534-.591-2.122-.008l-26.254 26.047c-.588.583-.592 1.533-.008 2.122.293.295.679.443 1.065.443.382 0 .764-.145 1.057-.435l26.254-26.048c.588-.583.592-1.533.008-2.121z"/><path d="m39.072 205.554c-.829 0-1.5.671-1.5 1.5v4.702h-4.702c-.829 0-1.5.671-1.5 1.5s.671 1.5 1.5 1.5h6.202c.829 0 1.5-.671 1.5-1.5v-6.202c0-.828-.672-1.5-1.5-1.5z"/><path d="m60.778 227.261h-6.202c-.829 0-1.5.671-1.5 1.5v6.202c0 .829.671 1.5 1.5 1.5s1.5-.671 1.5-1.5v-4.702h4.702c.829 0 1.5-.671 1.5-1.5s-.671-1.5-1.5-1.5z"/><path d="m60.913 233.079-26.048-26.254c-.584-.588-1.534-.591-2.122-.008s-.592 1.533-.008 2.122l26.048 26.254c.294.295.679.443 1.065.443.382 0 .764-.145 1.057-.435.588-.584.592-1.534.008-2.122z"/><path d="m106.799 235.297-4.385-4.386c-.563-.563-1.559-.563-2.121 0l-4.385 4.386c-.586.586-.586 1.536 0 2.121.586.586 1.536.586 2.121 0l3.325-3.325 3.325 3.325c.293.293.677.439 1.061.439s.768-.146 1.06-.439c.585-.585.585-1.535-.001-2.121z"/><path d="m106.799 204.599c-.586-.586-1.535-.586-2.121 0l-3.325 3.325-3.325-3.325c-.586-.586-1.535-.586-2.121 0-.586.585-.586 1.536 0 2.121l4.385 4.385c.293.293.677.439 1.06.439s.768-.146 1.061-.439l4.385-4.385c.587-.585.587-1.535.001-2.121z"/><path d="m101.432 201.017h-.006c-.826 0-1.497.667-1.5 1.494l-.147 36.983c-.003.828.666 1.502 1.494 1.506h.006c.826 0 1.497-.667 1.5-1.494l.147-36.983c.004-.829-.665-1.503-1.494-1.506z"/><path d="m91.45 219.948-4.385-4.385c-.586-.586-1.535-.586-2.121 0-.586.585-.586 1.536 0 2.121l3.325 3.325-3.325 3.325c-.586.585-.586 1.536 0 2.121.293.293.677.439 1.061.439s.768-.146 1.061-.439l4.385-4.385c.585-.587.585-1.537-.001-2.122z"/><path d="m114.438 221.008 3.325-3.325c.586-.585.586-1.536 0-2.121-.586-.586-1.535-.586-2.121 0l-4.385 4.385c-.586.585-.586 1.536 0 2.121l4.385 4.385c.293.293.677.439 1.061.439s.768-.146 1.061-.439c.586-.585.586-1.536 0-2.121z"/><path d="m119.851 219.582-36.983-.146h-.006c-.826 0-1.497.667-1.5 1.494-.003.828.666 1.502 1.494 1.506l36.983.146h.006c.826 0 1.497-.667 1.5-1.494.003-.829-.666-1.503-1.494-1.506z"/><path d="m93.601 227.261h-6.202c-.829 0-1.5.671-1.5 1.5s.671 1.5 1.5 1.5h4.702v4.702c0 .829.671 1.5 1.5 1.5s1.5-.671 1.5-1.5v-6.202c0-.829-.672-1.5-1.5-1.5z"/><path d="m115.307 211.756h-4.702v-4.702c0-.829-.671-1.5-1.5-1.5s-1.5.671-1.5 1.5v6.202c0 .829.671 1.5 1.5 1.5h6.202c.829 0 1.5-.671 1.5-1.5s-.671-1.5-1.5-1.5z"/><path d="m115.545 206.928c-.584-.588-1.534-.591-2.122-.008l-26.254 26.048c-.588.583-.592 1.533-.008 2.122.293.295.679.443 1.065.443.382 0 .764-.145 1.057-.435l26.254-26.048c.588-.584.592-1.534.008-2.122z"/><path d="m93.601 205.554c-.829 0-1.5.671-1.5 1.5v4.702h-4.702c-.829 0-1.5.671-1.5 1.5s.671 1.5 1.5 1.5h6.202c.829 0 1.5-.671 1.5-1.5v-6.202c0-.828-.672-1.5-1.5-1.5z"/><path d="m115.307 227.261h-6.202c-.829 0-1.5.671-1.5 1.5v6.202c0 .829.671 1.5 1.5 1.5s1.5-.671 1.5-1.5v-4.702h4.702c.829 0 1.5-.671 1.5-1.5s-.671-1.5-1.5-1.5z"/><path d="m115.442 233.079-26.048-26.254c-.584-.588-1.534-.591-2.122-.008s-.592 1.533-.008 2.122l26.048 26.254c.293.295.679.443 1.065.443.382 0 .764-.145 1.057-.435.587-.584.591-1.534.008-2.122z"/><path d="m67.468 161.425-4.385-4.385c-.586-.586-1.535-.586-2.121 0l-4.386 4.385c-.586.585-.586 1.535 0 2.121s1.535.586 2.121 0l3.325-3.325 3.325 3.325c.293.293.677.439 1.06.439s.768-.146 1.061-.439c.586-.585.586-1.535 0-2.121z"/><path d="m67.468 130.728c-.586-.586-1.535-.586-2.121 0l-3.325 3.325-3.325-3.325c-.586-.586-1.536-.586-2.121 0-.586.586-.586 1.536 0 2.121l4.386 4.385c.293.293.677.439 1.061.439s.768-.146 1.06-.439l4.385-4.385c.586-.585.586-1.536 0-2.121z"/><path d="m62.101 127.146h-.006c-.826 0-1.497.667-1.5 1.494l-.146 36.983c-.003.828.665 1.502 1.494 1.506h.006c.826 0 1.497-.667 1.5-1.494l.146-36.983c.004-.829-.665-1.503-1.494-1.506z"/><path d="m52.119 146.077-4.385-4.386c-.586-.586-1.535-.586-2.121 0-.586.585-.586 1.535 0 2.121l3.325 3.325-3.325 3.325c-.586.585-.586 1.536 0 2.121.293.293.677.439 1.061.439s.768-.146 1.061-.439l4.385-4.385c.585-.586.585-1.535-.001-2.121z"/><path d="m75.107 147.137 3.325-3.325c.586-.586.586-1.536 0-2.121-.586-.586-1.536-.586-2.121 0l-4.385 4.386c-.586.586-.586 1.536 0 2.121l4.385 4.385c.293.293.677.439 1.061.439s.768-.146 1.061-.439c.586-.585.586-1.536 0-2.121z"/><path d="m80.52 145.71-36.983-.146h-.006c-.826 0-1.497.667-1.5 1.494-.003.828.665 1.502 1.494 1.506l36.983.146h.006c.826 0 1.497-.667 1.5-1.494.003-.828-.666-1.503-1.494-1.506z"/><path d="m54.27 153.39h-6.202c-.829 0-1.5.671-1.5 1.5s.671 1.5 1.5 1.5h4.702v4.702c0 .829.671 1.5 1.5 1.5s1.5-.671 1.5-1.5v-6.202c0-.829-.671-1.5-1.5-1.5z"/><path d="m75.977 137.885h-4.702v-4.702c0-.829-.671-1.5-1.5-1.5s-1.5.671-1.5 1.5v6.202c0 .829.671 1.5 1.5 1.5h6.202c.829 0 1.5-.671 1.5-1.5s-.672-1.5-1.5-1.5z"/><path d="m76.214 133.057c-.584-.587-1.534-.591-2.122-.008l-26.254 26.048c-.588.583-.592 1.533-.008 2.122.293.295.679.443 1.065.443.382 0 .764-.145 1.057-.435l26.254-26.048c.588-.584.592-1.534.008-2.122z"/><path d="m54.27 131.683c-.829 0-1.5.671-1.5 1.5v4.702h-4.702c-.829 0-1.5.671-1.5 1.5s.671 1.5 1.5 1.5h6.202c.829 0 1.5-.671 1.5-1.5v-6.202c0-.829-.671-1.5-1.5-1.5z"/><path d="m75.977 153.39h-6.202c-.829 0-1.5.671-1.5 1.5v6.202c0 .829.671 1.5 1.5 1.5s1.5-.671 1.5-1.5v-4.702h4.702c.829 0 1.5-.671 1.5-1.5s-.672-1.5-1.5-1.5z"/><path d="m76.111 159.208-26.047-26.254c-.584-.588-1.534-.591-2.122-.008s-.592 1.533-.008 2.122l26.047 26.254c.293.295.679.443 1.065.443.382 0 .764-.145 1.057-.435.587-.584.591-1.534.008-2.122z"/><path d="m199.424 161.425-4.386-4.385c-.586-.586-1.535-.586-2.121 0l-4.385 4.385c-.586.585-.586 1.536 0 2.121.293.293.677.439 1.061.439s.768-.146 1.06-.439l3.325-3.325 3.325 3.325c.586.586 1.536.586 2.121 0 .586-.586.586-1.535 0-2.121z"/><path d="m199.424 130.728c-.586-.586-1.535-.586-2.121 0l-3.325 3.325-3.325-3.325c-.586-.586-1.535-.586-2.121 0-.586.585-.586 1.536 0 2.121l4.385 4.385c.293.293.677.439 1.06.439.384 0 .768-.146 1.061-.439l4.386-4.385c.586-.585.586-1.535 0-2.121z"/><path d="m194.057 127.146h-.006c-.826 0-1.497.667-1.5 1.494l-.146 36.983c-.003.828.666 1.502 1.494 1.506h.006c.826 0 1.497-.667 1.5-1.494l.146-36.983c.003-.829-.666-1.503-1.494-1.506z"/><path d="m184.075 146.077-4.385-4.386c-.586-.586-1.535-.586-2.121 0-.586.585-.586 1.535 0 2.121l3.325 3.325-3.325 3.325c-.586.585-.586 1.536 0 2.121.293.293.677.439 1.06.439s.768-.146 1.061-.439l4.385-4.385c.586-.586.586-1.535 0-2.121z"/><path d="m207.063 147.137 3.325-3.325c.586-.586.586-1.536 0-2.121-.586-.586-1.536-.586-2.121 0l-4.385 4.386c-.586.586-.586 1.536 0 2.121l4.385 4.385c.293.293.677.439 1.061.439s.767-.146 1.06-.439c.586-.585.586-1.536 0-2.121z"/><path d="m212.475 145.71-36.983-.146h-.006c-.826 0-1.497.667-1.5 1.494-.003.828.666 1.502 1.494 1.506l36.983.146h.006c.826 0 1.497-.667 1.5-1.494.004-.828-.665-1.503-1.494-1.506z"/><path d="m186.226 153.39h-6.202c-.829 0-1.5.671-1.5 1.5s.671 1.5 1.5 1.5h4.702v4.702c0 .829.671 1.5 1.5 1.5s1.5-.671 1.5-1.5v-6.202c0-.829-.672-1.5-1.5-1.5z"/><path d="m207.932 137.885h-4.702v-4.702c0-.829-.671-1.5-1.5-1.5s-1.5.671-1.5 1.5v6.202c0 .829.671 1.5 1.5 1.5h6.202c.829 0 1.5-.671 1.5-1.5s-.672-1.5-1.5-1.5z"/><path d="m208.17 133.057c-.584-.587-1.534-.591-2.122-.008l-26.254 26.048c-.588.583-.592 1.533-.008 2.122.294.295.679.443 1.065.443.382 0 .764-.145 1.057-.435l26.254-26.048c.588-.584.591-1.534.008-2.122z"/><path d="m186.226 131.683c-.829 0-1.5.671-1.5 1.5v4.702h-4.702c-.829 0-1.5.671-1.5 1.5s.671 1.5 1.5 1.5h6.202c.829 0 1.5-.671 1.5-1.5v-6.202c0-.829-.672-1.5-1.5-1.5z"/><path d="m207.932 153.39h-6.202c-.829 0-1.5.671-1.5 1.5v6.202c0 .829.671 1.5 1.5 1.5s1.5-.671 1.5-1.5v-4.702h4.702c.829 0 1.5-.671 1.5-1.5s-.672-1.5-1.5-1.5z"/><path d="m208.066 159.208-26.047-26.254c-.584-.588-1.534-.591-2.121-.008-.588.583-.592 1.533-.008 2.122l26.047 26.254c.293.295.679.443 1.065.443.382 0 .764-.145 1.057-.435.587-.584.591-1.534.007-2.122z"/></g><path d="m187.36 90.89c-1.11 0-2.27.04-3.66.14-.7.05-1.36-.4-1.55-1.09-6.74-24.21-29.01-41.12-54.15-41.12-3.24 0-6.43.28-9.52.81 21.1 3.64 38.79 19.2 44.67 40.31.19.69.85 1.14 1.55 1.09 1.39-.1 2.55-.14 3.66-.14 27.65 0 50.14 22.49 50.14 50.14 0 26.66-21.2 48.74-47.62 50.07-.03.03-.06.05-.09.08h17.04c.07-.01.14-.02.21-.02 27.27-.37 49.46-22.85 49.46-50.13 0-27.65-22.49-50.14-50.14-50.14z" fill="#6ca8bf"/><path d="m127.841 166.793 16.274-51.336h-26.738l-7.542 24.604-4.18 13.633-9.261 30.21h35.739l.487 55.423 26.986-72.534z" fill="#d7e057"/><path d="m160.838 165.937c-.28-.403-.741-.644-1.232-.644h-29.716l15.655-49.383c.144-.456.063-.953-.219-1.339-.283-.386-.732-.614-1.21-.614h-26.738c-.659 0-1.241.43-1.434 1.061l-7.543 24.604c-.243.792.202 1.631.995 1.874.792.241 1.63-.202 1.874-.995l7.218-23.544h23.58l-15.655 49.383c-.145.456-.063.953.219 1.339.283.386.732.614 1.21.614h29.607l-23.399 62.893-.415-47.294c-.007-.823-.677-1.487-1.5-1.487h-33.71l8.666-28.271c.243-.792-.203-1.631-.995-1.874-.794-.244-1.631.203-1.874.995l-9.261 30.21c-.14.455-.055.949.228 1.331.283.383.731.608 1.206.608h34.252l.473 53.936c.006.724.528 1.339 1.241 1.464.087.015.174.022.26.022.617 0 1.184-.382 1.405-.977l26.986-72.534c.171-.46.106-.975-.174-1.378z" fill="#3a312a"/></svg>