<svg id="Layer_1" enable-background="new 0 0 256 256" height="512" viewBox="0 0 256 256" width="512" xmlns="http://www.w3.org/2000/svg"><g><g><path d="m33.134 55.667v4.703c0 75.177 35.084 146.048 94.866 191.63 59.782-45.582 94.866-116.452 94.866-191.63v-4.703l-94.866-51.667z" fill="#fcc24c"/></g><g><path d="m214.639 51.186v1.563c0 80.874-31.975 140.883-86.639 199.251 59.782-45.582 94.866-116.453 94.866-191.63v-4.703z" fill="#dea42e"/></g><g><path d="m41.361 51.186v1.563c0 80.874 31.974 140.883 86.639 199.251-59.782-45.582-94.866-116.453-94.866-191.63v-4.703z" fill="#fce06a"/></g><g><path d="m128 254c-.428 0-.854-.137-1.213-.41-29.575-22.551-53.931-52.088-70.431-85.42-16.501-33.331-25.223-70.608-25.223-107.8v-4.704c0-.732.4-1.406 1.043-1.756l94.866-51.666c.598-.325 1.316-.325 1.914 0l94.866 51.666c.643.35 1.043 1.024 1.043 1.756v4.704c0 37.192-8.722 74.469-25.223 107.8-16.5 33.332-40.855 62.869-70.431 85.42-.356.273-.783.41-1.211.41zm-92.866-197.146v3.516c0 36.58 8.578 73.243 24.808 106.025 16.002 32.327 39.515 61.025 68.058 83.084 28.543-22.059 52.056-50.756 68.059-83.083 16.23-32.782 24.808-69.445 24.808-106.025v-3.516l-92.867-50.578z" fill="#690589"/></g><g><path d="m44.824 99.061c-.956 0-1.802-.688-1.969-1.662-.743-4.321-1.633-11.787-1.671-12.103-.13-1.097.653-2.092 1.75-2.222 1.089-.133 2.092.652 2.223 1.749.009.077.915 7.68 1.64 11.897.188 1.089-.543 2.123-1.632 2.31-.114.021-.229.031-.341.031z" fill="#690589"/></g><g><path d="m156.081 102.412c-1.105 0-2-.896-2-2v-13.96c0-14.381-11.7-26.081-26.081-26.081s-26.081 11.7-26.081 26.081v13.96c0 1.104-.896 2-2 2s-2-.896-2-2v-13.96c0-16.587 13.494-30.081 30.081-30.081s30.081 13.494 30.081 30.081v13.96c0 1.104-.895 2-2 2z" fill="#690589"/></g><g><path d="m158.029 177.63h-60.058c-4.738 0-8.58-3.841-8.58-8.58v-60.059c0-4.739 3.841-8.58 8.58-8.58h60.058c4.738 0 8.58 3.841 8.58 8.58v60.059c0 4.738-3.841 8.58-8.58 8.58z" fill="#f4efed"/></g><g><path d="m158.029 179.629h-60.058c-5.834 0-10.58-4.746-10.58-10.58v-60.059c0-5.834 4.746-10.58 10.58-10.58h60.059c5.834 0 10.58 4.746 10.58 10.58v60.059c-.001 5.834-4.747 10.58-10.581 10.58zm-60.058-77.217c-3.628 0-6.58 2.952-6.58 6.58v60.059c0 3.628 2.952 6.58 6.58 6.58h60.059c3.628 0 6.58-2.952 6.58-6.58v-60.059c0-3.628-2.952-6.58-6.58-6.58z" fill="#690589"/></g><g><g><path d="m123.193 159.255-23.598-22.369 8.143-8.589 15.73 14.91 25.47-22.614 7.846 8.864z" fill="#526faa"/></g></g><g><g><g><path d="m123.193 161.255c-.495 0-.991-.184-1.376-.548l-23.599-22.369c-.385-.365-.609-.868-.623-1.398-.015-.53.183-1.044.548-1.429l8.143-8.589c.759-.802 2.026-.835 2.827-.076l14.397 13.648 24.099-21.396c.397-.353.916-.533 1.448-.501.53.032 1.025.273 1.378.671l7.846 8.864c.732.827.655 2.089-.171 2.822l-33.591 29.798c-.377.335-.852.503-1.326.503zm-20.771-24.444 20.816 19.731 30.725-27.255-5.194-5.868-23.973 21.284c-.778.689-1.952.669-2.704-.044l-14.278-13.535z" fill="#690589"/></g></g></g></g></svg>