<?xml version="1.0" encoding="utf-8"?>
<!-- Generator: Adobe Illustrator 23.0.6, SVG Export Plug-In . SVG Version: 6.00 Build 0)  -->
<svg version="1.1" id="bd2cc7d1-84bf-4eba-bc4c-9f93ef6f675e"
	 xmlns="http://www.w3.org/2000/svg" xmlns:xlink="http://www.w3.org/1999/xlink" x="0px" y="0px" viewBox="0 0 1011 586"
	 style="enable-background:new 0 0 1011 586;" xml:space="preserve">
<style type="text/css">
	.st0{fill:#11AB7C;}
	.st1{opacity:0.1;enable-background:new    ;}
	.st2{fill:#F2F2F2;}
	.st3{fill:#005AD4;}
	.st4{opacity:0.4;fill:#005AD4;enable-background:new    ;}
	.st5{opacity:3.000000e-02;enable-background:new    ;}
	.st6{fill:none;stroke:#3F3D56;stroke-width:4;stroke-miterlimit:10;}
	.st7{fill:#F5B759;}
	.st8{fill:#EF6C4D;}
	.st9{fill:#656380;}
	.st10{opacity:0.2;enable-background:new    ;}
	.st11{opacity:0.6;fill:#EF6C4D;enable-background:new    ;}
	.st12{opacity:0.6;fill:#F5B759;enable-background:new    ;}
	.st13{fill:url(#SVGID_1_);}
	.st14{fill:#ECB4B6;}
	.st15{fill:#E0E6F0;}
	.st16{opacity:0.25;fill:#FFFFFF;enable-background:new    ;}
	.st17{opacity:0.25;fill:#E0E6F0;enable-background:new    ;}
	.st18{fill:#FF748E;}
	.st19{fill:#5E5A6B;}
	.st20{fill:#464353;}
	.st21{opacity:0.1;}
	.st22{fill:#9F9EFF;}
</style>
<title>close_tab</title>
<path class="st0" d="M974.2,565.5c0,4.9-42.6,9.4-113,12.8c-12.8,0.6-26.5,1.2-41.1,1.8c-12.6,0.5-25.8,0.9-39.6,1.4
	c-13.4,0.4-27.2,0.8-41.6,1.1c-45.4,1.1-95.6,1.9-149,2.3c-12.9,0.1-26.1,0.2-39.4,0.2c-13.8,0.1-27.8,0.1-42,0.1
	c-257.2,0-465.6-8.8-465.6-19.6c0-10.8,208.5-19.7,465.6-19.7c110.7,0,212.4,1.6,292.3,4.3l8.7,0.3h0.1
	C910.3,554.1,974.2,559.5,974.2,565.5z"/>
<path class="st1" d="M974.2,565.5c0,4.9-42.6,9.4-113,12.8c-12.8,0.6-26.5,1.2-41.1,1.8c-12.6,0.5-25.8,0.9-39.6,1.4
	c-13.4,0.4-27.2,0.8-41.6,1.1c-45.4,1.1-95.6,1.9-149,2.3c-12.9,0.1-26.1,0.2-39.4,0.2c-13.8,0.1-27.8,0.1-42,0.1
	c-257.2,0-465.6-8.8-465.6-19.6c0-10.8,208.5-19.7,465.6-19.7c110.7,0,212.4,1.6,292.3,4.3l8.7,0.3h0.1
	C910.3,554.1,974.2,559.5,974.2,565.5z"/>
<path class="st0" d="M974.2,558.1c0,4.9-42.6,9.4-113,12.8c-12.8,0.6-26.5,1.2-41.1,1.8c-12.6,0.5-25.8,0.9-39.6,1.4
	c-13.4,0.4-27.2,0.8-41.6,1.1c-45.4,1.1-95.6,1.9-149,2.3c-12.9,0.1-26.1,0.2-39.4,0.2c-13.8,0-27.8,0.1-42,0.1
	c-257.2,0-465.6-8.8-465.6-19.6c0-10.8,208.5-19.6,465.6-19.6c110.7,0,212.4,1.6,292.3,4.3l8.7,0.3h0.1
	C910.3,546.7,974.2,552.1,974.2,558.1z"/>
<path class="st0" d="M974.2,558.1c0,4.9-42.6,9.4-113,12.8c-12.8,0.6-26.5,1.2-41.1,1.8c-12.6,0.5-25.8,0.9-39.6,1.4
	c-13.4,0.4-27.2,0.8-41.6,1.1c-45.4,1.1-95.6,1.9-149,2.3c-12.9,0.1-26.1,0.2-39.4,0.2c-13.8,0.1-27.8,0.1-42,0.1
	c-257.2,0-465.6-8.8-465.6-19.7c0-9.4,155.1-17.2,362.9-19.2c11.8-0.1,23.8-0.2,35.9-0.3c21.8-0.1,44.1-0.2,66.8-0.2
	c22.7,0,45,0.1,66.8,0.2c12.1,0.1,24.1,0.2,35.9,0.3c70.6,0.7,135.1,2,189.5,3.9l8.7,0.3h0.1C910.3,546.7,974.2,552.1,974.2,558.1z"
	/>
<path class="st2" d="M734.2,197.6l-72,3.3l70.8-14.6c-1.1-6.4-2.9-12.7-5.3-18.7c40.2-29.5,49-86.2,19.7-126.7
	C718.1,0.5,661.8-8.5,621.6,21c-3.3,2.4-6.4,5-9.3,7.9l50.2,65.3l-58.8-55.8c-15.2,19.7-21.7,44.9-17.9,69.6l51.5,14.3l-49.8-5.8
	c1,4.1,2.3,8,3.9,11.9c-33.6,24.6-46.2,69.2-30.4,107.9c-40.3,29.4-49.3,86.1-20.2,126.6c8.3,11.6,19.3,21.1,32,27.6
	c-2.1,3-3.7,6.3-4.7,9.8c-1.5,5.1-1.6,10.5-0.3,15.6c-7.6,7.6-10.7,18.6-8.2,29.1c-7.6,7.6-10.7,18.6-8.2,29.1
	c-7.6,7.6-10.7,18.6-8.2,29.1c-3.8,3.7-6.5,8.4-7.9,13.5c-3.7,13.2,1.4,26.2,11.3,29s21.1-5.5,24.8-18.7c1.5-5.1,1.6-10.5,0.4-15.6
	c7.6-7.6,10.7-18.6,8.2-29.1c7.6-7.6,10.7-18.6,8.2-29.1c7.6-7.6,10.7-18.6,8.2-29.1c3.8-3.7,6.5-8.4,7.9-13.5c1-3.5,1.4-7,1.2-10.6
	c49.5,4.6,93.4-32.1,97.9-82c1.3-14.5-0.8-29.2-6.3-42.7C721.7,257.5,735.7,228.2,734.2,197.6L734.2,197.6z"/>
<ellipse class="st1" cx="508.5" cy="557.7" rx="108.7" ry="11.6"/>
<ellipse class="st3" cx="508.5" cy="342" rx="216.3" ry="217.8"/>
<path class="st1" d="M688.3,342c0,100-80.5,181-179.7,181c-5.7,0-11.3-0.3-16.9-0.8c-89.4-8.4-159.7-82.7-162.7-174.1
	c-0.1-2-0.1-4.1-0.1-6.1c0-4.6,0.2-9.1,0.5-13.6c6.9-93.6,84.5-167.4,179.2-167.4c81.7,0,150.7,55,172.5,130.2
	c0.4,1.4,0.8,2.7,1.1,4.1c1.3,5.1,2.5,10.2,3.4,15.5C687.4,321,688.3,331.5,688.3,342z"/>
<path class="st4" d="M688.3,342c0,100-80.5,181-179.7,181c-97.2,0-176.4-77.8-179.6-174.9c20.5,0.6,41.4-0.1,60.7-6.8
	c21-7.3,39-21.2,58.3-32.2c51.9-29.5,113.9-37.4,173.2-31.6c20.1,2,41,6.1,59.9,13.7C685.9,307.6,688.3,324.7,688.3,342L688.3,342z"
	/>
<path class="st4" d="M688.3,342c0,100-80.5,181-179.7,181c-5.7,0-11.3-0.3-16.9-0.8c-59.4-29.5-97.8-89.6-100-156.2
	c20.5,0.6,41.4-0.1,60.7-6.8c21-7.3,39-21.2,58.3-32.2c51.4-29.2,112.8-37.3,171.6-31.7c1.3,5.1,2.5,10.2,3.4,15.5
	C687.4,321,688.3,331.5,688.3,342z"/>
<path class="st3" d="M688.3,342c0,100-80.5,181-179.7,181s-179.7-81-179.7-181c0-4.6,0.2-9.1,0.5-13.6c14.2,1.7,28,5.6,41,11.5
	c21.1,9.5,39.8,24.2,61.7,31.5c16,5.4,33,6.6,49.8,7.2c21,0.7,42.5,0.1,62.4-6.8c21-7.3,38.9-21.2,58.3-32.2
	c25.7-14.6,53.9-23.9,83-28.9C687.4,321,688.3,331.5,688.3,342z"/>
<path class="st2" d="M955.2,93.1L939,103.4l9.8-18c-2.8-2.2-6.2-3.5-9.8-3.5h-0.3c-1.1,0-2.2-0.1-3.4-0.3l-5.5,3.5l2.4-4.3
	c-3.9-1.4-7.3-3.9-9.6-7.3l-9.8,6.3l6.2-11.4c-5.8-7-13.5-11.2-22-11.2c-10.2,0-19.3,6.1-25.2,15.7c-3.5,5.8-9.9,9.3-16.7,9.1h-0.6
	c-11.3,0-20.4,12.9-20.4,28.8s9.2,28.8,20.4,28.8c2.5,0,4.9-0.6,7.1-1.8c7.4-3.9,17-3.9,24.7-0.5c6.7,3,14.3,3,21,0.1
	c7.7-3.4,17.2-3.3,24.5,0.5c2.2,1.2,4.6,1.8,7,1.8c11.3,0,20.4-12.9,20.4-28.8C959.5,104.6,958.1,98.5,955.2,93.1z"/>
<path class="st5" d="M924.6,135.2c-5.9-1.1-12-0.5-17.5,1.9c-6.7,3-14.3,3-21,0c-7.7-3.4-17.4-3.4-24.8,0.5
	c-2.2,1.2-4.6,1.8-7.1,1.8c-10.1,0-18.4-10.2-20.1-23.7c2-1.5,3.7-3.3,5-5.4c5.9-9.5,15-15.7,25.2-15.7s19.2,6.1,25.1,15.5
	c3.6,5.8,9.9,9.3,16.7,9.2h0.3C914.3,119.4,921.2,125.8,924.6,135.2z"/>
<path class="st2" d="M137.9,60.3l-8.1,5.2l4.9-9c-1.4-1.1-3.1-1.8-4.9-1.8h-0.1c-0.6,0-1.1,0-1.7-0.1l-2.7,1.8l1.2-2.2
	c-1.9-0.7-3.6-2-4.8-3.7l-4.9,3.1l3.1-5.7c-2.6-3.4-6.7-5.5-11-5.6c-5.1,0-9.6,3.1-12.6,7.8c-1.8,2.9-4.9,4.6-8.3,4.5h-0.3
	c-5.6,0-10.2,6.4-10.2,14.4c0,7.9,4.6,14.3,10.2,14.3c1.2,0,2.5-0.3,3.6-0.9c3.9-1.9,8.4-2,12.3-0.2c3.3,1.5,7.2,1.5,10.5,0
	c3.9-1.7,8.4-1.6,12.2,0.2c1.1,0.6,2.3,0.9,3.5,0.9c5.6,0,10.2-6.4,10.2-14.3C140.1,66,139.3,63,137.9,60.3z"/>
<path class="st5" d="M122.7,81.3c-2.9-0.6-6-0.2-8.7,1c-3.3,1.5-7.2,1.5-10.5,0c-4-1.7-8.5-1.7-12.4,0.2c-1.1,0.6-2.3,0.9-3.6,0.9
	c-5,0-9.2-5.1-10-11.8c1-0.7,1.8-1.6,2.5-2.7c2.9-4.8,7.5-7.8,12.6-7.8s9.6,3,12.5,7.7c1.8,2.9,4.9,4.6,8.3,4.6h0.1
	C117.5,73.4,120.9,76.6,122.7,81.3z"/>
<path class="st2" d="M298.3,79.1l13,8.3L303.4,73c2.2-1.8,5-2.8,7.9-2.8h0.2c0.9,0,1.8-0.1,2.7-0.2l4.4,2.8l-1.9-3.5
	c3.1-1.1,5.8-3.2,7.7-5.9l7.9,5l-4.9-9.1c4.6-5.6,10.8-9,17.7-9c8.2,0,15.5,4.9,20.2,12.5c2.8,4.7,7.9,7.4,13.3,7.3h0.4
	c9,0,16.4,10.3,16.4,23.1s-7.3,23.1-16.4,23.1c-2,0-4-0.5-5.7-1.4c-6.2-3-13.5-3.2-19.8-0.4c-5.4,2.4-11.5,2.5-16.9,0
	c-6.3-2.8-13.5-2.6-19.7,0.4c-1.7,0.9-3.7,1.4-5.6,1.4c-9.1,0-16.4-10.3-16.4-23.1C294.8,88.3,295.9,83.5,298.3,79.1z"/>
<path class="st5" d="M322.7,112.9c4.7-0.9,9.6-0.4,14,1.5c5.4,2.4,11.5,2.4,16.9,0c6.3-2.8,13.6-2.7,19.8,0.4
	c1.8,0.9,3.7,1.4,5.7,1.4c8,0,14.7-8.2,16.1-18.9c-1.6-1.2-3-2.7-4.1-4.4c-4.7-7.6-12-12.5-20.2-12.5s-15.4,4.9-20.1,12.4
	c-2.9,4.6-7.9,7.4-13.3,7.4h-0.2C331,100.2,325.4,105.3,322.7,112.9z"/>
<path class="st6" d="M886.9,546.3c4.3-8.1-0.6-17.9-6.2-25.1c-5.6-7.2-12.4-14.6-12.3-23.8c0.2-13.1,14-20.9,25.1-27.9
	c8.2-5.2,15.8-11.3,22.6-18.2c2.7-2.8,5.3-5.8,6.9-9.3c2.3-5.1,2.2-11,2.1-16.6c-0.5-18.7-1.4-37.4-2.8-56.2"/>
<path class="st0" d="M943.3,368.2c-0.3-7-4.2-13.3-10.2-16.8l-4.5,9.1l0.1-11c-10.8-3.2-22.1,3-25.2,13.9
	c-3.2,10.9,3,22.2,13.8,25.4c10.8,3.2,22.1-3,25.2-13.9C943.2,372.8,943.4,370.5,943.3,368.2z"/>
<path class="st7" d="M907.1,506.9c-5.1,10-17.4,14-27.4,8.8c-10-5.2-13.9-17.5-8.8-27.6c5.1-10,17.4-14,27.4-8.8
	c4.5,2.3,8,6.3,9.7,11.1l-12.7,10.4l14-3.3C909.3,500.8,908.5,504,907.1,506.9z"/>
<path class="st0" d="M897,467.1c-11.2,0.5-20.7-8.2-21.3-19.5c-0.5-9.5,5.7-18.1,14.8-20.7l-0.1,8.4l4.6-9.2h0.1
	c11.2-0.8,20.9,7.8,21.7,19.1c0.8,11.3-7.7,21.1-18.9,21.8C897.6,467.1,897.3,467.1,897,467.1L897,467.1z"/>
<path class="st8" d="M946.4,434c-11.2,0.5-20.7-8.2-21.3-19.5c-0.5-11.3,8.1-20.9,19.4-21.4c3.8-0.2,7.6,0.7,10.9,2.6l-3.6,9.9
	l7.4-7.2c4,3.6,6.3,8.7,6.6,14.1c0.1,1.9-0.1,3.8-0.5,5.7C963.2,427.2,955.5,433.6,946.4,434z"/>
<path class="st1" d="M940.6,373.7c-4.7,0.5-9.3,2-14,2.3c-4.7,0.3-9.9-0.8-12.9-4.5c-1.6-2-2.4-4.5-3.8-6.7c-1.3-2-3-3.7-5.1-4.9
	c-5.1,10.1-1.1,22.4,8.9,27.6c10,5.1,22.3,1.1,27.4-8.9c0.8-1.6,1.4-3.3,1.8-5.1C942.2,373.6,941.4,373.6,940.6,373.7z"/>
<path class="st1" d="M946.4,434c-11.2,0.5-20.7-8.3-21.2-19.6c-0.1-3.3,0.5-6.6,1.9-9.6c1.6,1.1,3,2.5,4.1,4.1
	c1.4,2.2,2.3,4.7,4,6.8c3.2,3.8,8.6,5,13.5,4.8s9.6-1.6,14.5-2.1c0.7-0.1,1.4-0.1,2-0.1C963.1,427.2,955.5,433.6,946.4,434z"/>
<path class="st1" d="M897,467.1c-11.2,0.6-20.8-8.1-21.3-19.4c-0.2-3.2,0.4-6.4,1.8-9.4c1.7,1.1,3.1,2.5,4.3,4.2
	c1.6,2.2,2.6,4.8,4.4,6.9c3.4,3.8,9.2,5.2,14.4,5.1c5-0.1,9.9-1.4,14.9-1.7C913,460.9,905.6,466.7,897,467.1z"/>
<path class="st1" d="M907.1,506.9c-5.2,10.1-17.4,14-27.4,8.8c-9.2-4.8-13.3-15.8-9.7-25.5c1.7,1.1,3.2,2.5,4.4,4
	c1.9,2.4,3.2,5.1,5.4,7.3c4.2,4.1,10.9,5.8,16.9,6C900.2,507.4,903.6,507.2,907.1,506.9z"/>
<path class="st9" d="M856.3,537.1c0,0,16-0.5,20.9-4c4.8-3.5,24.7-7.6,25.9-2c1.2,5.6,24.1,27.7,6,27.8c-18.1,0.2-42.1-2.8-46.9-5.8
	C857.3,550.1,856.3,537.1,856.3,537.1z"/>
<path class="st10" d="M909.4,556.9c-18.1,0.1-42.1-2.8-46.9-5.8c-3.7-2.3-5.1-10.3-5.6-14.1h-0.5c0,0,1,13,5.8,16
	c4.8,3,28.8,6,46.9,5.8c5.2,0,7-1.9,6.9-4.7C915.3,555.8,913.3,556.9,909.4,556.9z"/>
<path class="st6" d="M794.7,542.7c-2.8-5.3,0.4-11.7,4.1-16.4s8.1-9.6,8.1-15.5c-0.1-8.6-9.2-13.6-16.4-18.2
	c-5.4-3.4-10.3-7.4-14.7-11.9c-1.9-1.7-3.4-3.8-4.5-6.1c-1.5-3.4-1.4-7.2-1.4-10.8c0.3-12.2,0.9-24.5,1.8-36.7"/>
<path class="st8" d="M757.8,426.3c0.2-4.5,2.7-8.7,6.6-10.9l3,5.9l-0.1-7.2c7-2.1,14.4,1.9,16.5,9c2.1,7.1-1.9,14.5-9,16.6
	c-7,2.1-14.4-1.9-16.5-9C757.9,429.3,757.8,427.8,757.8,426.3z"/>
<path class="st0" d="M781.5,516.9c3.4,6.6,11.4,9.2,17.9,5.8c4.2-2.2,7-6.5,7.2-11.3c0.1-1.9-0.2-3.7-0.9-5.4
	c-2.6-6.9-10.3-10.4-17.1-7.7c-3.6,1.4-6.4,4.3-7.7,7.9l8.3,6.8l-9.1-2.1C780,512.9,780.5,515,781.5,516.9z"/>
<path class="st7" d="M788.1,490.9c7.3,0.3,13.5-5.4,13.9-12.7c0.1-2.1-0.3-4.2-1.1-6.1c-1.6-3.6-4.7-6.3-8.5-7.4l0.1,5.5l-3-6l0,0
	c-7.3-0.3-13.5,5.4-13.9,12.7c-0.1,1.5,0.1,3.1,0.6,4.6C777.7,486.8,782.5,490.6,788.1,490.9z"/>
<path class="st0" d="M755.8,469.3c7.3,0.3,13.5-5.4,13.9-12.7c0.3-7.4-5.4-13.7-12.8-14c-2.4-0.1-4.9,0.5-7,1.7l2.3,6.5l-4.8-4.7
	c-5.4,5-5.8,13.5-0.8,18.9C749,467.6,752.3,469.1,755.8,469.3L755.8,469.3z"/>
<path class="st1" d="M759.6,429.9c3.1,0.3,6,1.3,9.1,1.5c3.1,0.2,6.5-0.6,8.4-3c1-1.3,1.6-2.9,2.5-4.3c0.8-1.3,2-2.4,3.3-3.2
	c3.3,6.6,0.6,14.7-6,18c-2,1-4.2,1.5-6.5,1.4c-6-0.3-11.1-4.6-12.4-10.5C758.6,429.8,759.1,429.9,759.6,429.9z"/>
<path class="st1" d="M755.8,469.3c7.3,0.3,13.5-5.4,13.9-12.7c0.1-2.2-0.3-4.4-1.3-6.3c-1.1,0.7-2,1.6-2.7,2.7
	c-1,1.4-1.5,3.1-2.7,4.4c-2.1,2.4-5.6,3.2-8.8,3.1c-3.2-0.2-6.3-1.1-9.5-1.4c-0.4,0-0.9-0.1-1.3-0.1
	C744.9,464.8,749.9,469,755.8,469.3z"/>
<path class="st1" d="M788.1,490.9c7.3,0.3,13.5-5.4,13.9-12.7c0.1-2.1-0.3-4.2-1.1-6.1c-1.1,0.7-2,1.6-2.8,2.7
	c-1,1.5-1.7,3.2-2.9,4.5c-2.2,2.5-6,3.4-9.4,3.3c-3.4-0.1-6.5-0.9-9.7-1.1C777.6,486.8,782.5,490.6,788.1,490.9z"/>
<path class="st1" d="M781.5,516.9c3.4,6.6,11.4,9.2,17.9,5.8c4.2-2.2,7-6.5,7.2-11.3c0.1-1.9-0.2-3.7-0.9-5.4
	c-1.1,0.7-2.1,1.6-2.9,2.6c-1.3,1.5-2.1,3.3-3.6,4.8c-2.7,2.7-7.1,3.8-11,3.9C786,517.2,783.7,517.1,781.5,516.9z"/>
<path class="st9" d="M814.7,536.6c0,0-10.5-0.3-13.6-2.6c-3.2-2.3-16.1-5-16.9-1.3c-0.8,3.6-15.7,18.1-3.9,18.2
	c11.8,0.1,27.5-1.9,30.6-3.8C814,545.1,814.7,536.6,814.7,536.6z"/>
<path class="st10" d="M780,549.6c11.8,0.1,27.5-1.9,30.6-3.8c2.4-1.5,3.4-6.8,3.7-9.2h0.4c0,0-0.7,8.5-3.8,10.4
	c-3.2,1.9-18.8,3.9-30.6,3.8c-3.4,0-4.6-1.2-4.5-3.1C776.2,548.8,777.5,549.5,780,549.6z"/>
<path class="st11" d="M481,435.9c20.2-3.8,20.3-33.4,20.3-33.4c-0.9,4.2-3,4.7-13.5,8.1c-10.5,3.4-16.9,14.4-16.9,14.4
	c-31.5-36.1-58.5,3.2-58.5,3.2c4.5,6.8,11.1,12,18.8,14.7c-1.2,3.1-2.6,7.3-1,8.9c1.8,1.8,6.6-3.7,9.2-7c0.8,0.1,1.6,0.2,2.3,0.2
	c1.5,3,5.2,11,5.2,15.7c0,0,8.6-0.7,7.5-16.4c5.4-0.9,10.7-2.5,15.8-4.7c0,0-0.9,24.6,6.2,25.9c7.1,1.3,14.1,10,14.1,10
	C501.2,454.6,481,435.9,481,435.9z"/>
<path class="st12" d="M606.8,389.4c20.2,4.1,31.2-23.5,31.2-23.5c-2.4,3.6-4.4,3.2-15.5,2.4c-11-0.8-21,7-21,7
	C585.6,330,546,356.5,546,356.5c1.7,8,5.9,15.3,12.1,20.7c-2.3,2.4-5.1,5.9-4.2,7.9c1,2.4,7.5-1,11.2-3.1c0.7,0.4,1.4,0.7,2.1,1.1
	c0.3,3.4,0.8,12.2-1,16.6c0,0,8.2,2.6,13-12.5c5.4,1.2,10.8,1.7,16.3,1.5c0,0-9.9,22.5-3.7,26.4c6.2,3.9,9.4,14.5,9.4,14.5
	C618.6,414.3,606.8,389.4,606.8,389.4z"/>
<linearGradient id="SVGID_1_" gradientUnits="userSpaceOnUse" x1="267.4538" y1="-76.2847" x2="267.4538" y2="377.6287" gradientTransform="matrix(1 0 0 -1 -76 489.45)">
	<stop  offset="0" style="stop-color:#808080;stop-opacity:0.25"/>
	<stop  offset="0.54" style="stop-color:#808080;stop-opacity:0.12"/>
	<stop  offset="1" style="stop-color:#808080;stop-opacity:0.1"/>
</linearGradient>
<path class="st13" d="M294.5,201.7L294.5,201.7l-0.2-0.2l-0.4-0.3l0.1,0.1c-0.8-0.5-1.7-0.3-2.3,0.4l-0.2,0.4l0,0l-12.1,17.5
	l-2.1,3.1c-6.4-1.9-16.7,6.2-21.9,10.9l-0.9,0.8c-0.4-0.9-0.7-1.5-0.7-1.5c-0.3,2.9-10.3,7.2-12.6,8.7c-1.1,0.6-2.3,1.1-3.5,1.2
	c0.3-10.9-8-22.3-8-22.3l-20.4-26.2c-0.7-4.7,0-9.6,2.1-13.9c0.2-0.3,0.3-0.7,0.5-1h0.9h0.1c1.7,0,3.3-0.2,5-0.4
	c12.3-2.2,21.6-12.7,22.3-25.2c2.1-0.5,3.8-2.5,3.5-4.7c0.1-0.4,0.1-0.9,0-1.3l0,0c-0.1-0.3-0.1-0.5-0.2-0.8l0,0
	c-0.6-1.5-1.8-2.7-2.7-4c-1.3-2-1.9-4.3-1.9-6.7c0.1-2.1,0.4-4.1,1-6.1c0.4-1.2,0.6-2.4,0.6-3.7v-0.3c0-0.3,0-0.7,0-1
	c0-0.2-0.1-0.5-0.2-0.7l0,0c-0.5-1.4-1.5-2.6-2.7-3.4c-3.2-2.1-7.4-2.1-11-3.5c-5.3-1.9-10-6.7-15.5-5.6c-3,0.6-5.3,2.9-7.9,4.6
	c-2.9,1.8-6.2,2.8-9.5,2.9c-2.8,0.1-5.7-0.5-8.5,0c-0.5,0.1-1,0.2-1.5,0.4c-2.4-0.8-4.9-1.2-7.4-1.2c-2.5-0.1-4.9,0.6-7,1.9
	c-3.8,2.7-4.8,7.8-4.7,12.4v0.1c0,0.3,0,0.6,0,0.9c0,2.2,0.2,4.5,0.2,6.7c0,2.1-0.2,4.1-0.8,6.1c-1.8,5.5-6.7,9.6-7.7,15.3
	c-0.2,1-0.2,2-0.2,3c-0.1,3.2,1,6.4,1.9,9.5c1.9,6.4,3.5,13.2,3.5,19.9c0,4.1-0.9,8.2-2.4,12.1c-0.5,1.1-1,2.2-1.7,3.2
	c-0.2,0.3-0.5,0.6-0.7,0.9l-0.1,0.1c-0.2,0.3-0.4,0.5-0.7,0.7l-0.2,0.2c-0.2,0.2-0.5,0.4-0.7,0.6l-0.2,0.2c-0.3,0.2-0.7,0.4-1,0.6
	l1.7-0.1c-0.5,0.4-1.1,0.8-1.7,1.1l9.2-0.5c0,0.1,0,0.2,0,0.3c0,0.2-0.1,0.5-0.1,0.7c-0.1,0.2-0.1,0.4-0.2,0.6c0,0,0,0.1,0,0.1
	c-0.2,0.4-0.4,0.8-0.7,1.2l-0.1,0.1c-0.1,0.2-0.3,0.3-0.5,0.5l0,0c-0.2,0.1-0.3,0.3-0.5,0.4l-0.1,0.1c-0.2,0.1-0.4,0.2-0.6,0.3l0,0
	c-0.2,0.1-0.4,0.2-0.6,0.2l-0.2,0c-0.2,0.1-0.4,0.1-0.6,0.1l0.9-0.1c0.6-0.1,1.2-0.1,1.7-0.2h0.2c-0.7,0.8-1.7,1.3-2.8,1.4
	c2-0.1,3.9-0.5,5.8-1.1c1.2,8.1,3.8,32.7,2.4,37.2c-1.7,4.9,2.3,40.4,2.3,40.4s0.5,2.7,1.5,6.8c-2.5,5.8-5.3,12.3-6.7,14.9
	c-2.8,5.2-1.4,31.7,8.3,43.5c0,0,4,5.7,3,7.8c-1.1,2.1,0.2,5.7,0.2,5.7l1.5,34.3c0,3.5-0.3,7-0.7,10.5c-4.1,5.2-10.5,12.7-13.6,14
	c-4.6,1.9-39.4,44.4-39.4,44.4s0.3,0.5,0.8,1.3l-1,1.1l-6.7,7.8l-0.5,0.6c-1.2-0.2-9.6-1.8-16.2-2.2h-0.6V486
	c-2.3-0.3-4.7-0.2-7,0.2h-0.1l0,0c-0.4,0.1-0.8,0.3-1.1,0.6c-2.2,2.8-3.5,46.4-3.5,46.4s2.4,21.8,9.9,23.1c0.4,0.1,0.8,0.2,1.2,0.2
	h0.1c0.1,0,0.3,0,0.4,0c5.3-0.4,7.8-3.5,8.9-5.6c0.3-0.6,0.6-1.3,0.7-2c0,0-0.9-3.9,1.5-9.3c2.4-5.4,6.7-14.7,6.7-14.7
	s7.9-8.4,6.5-12.5l0.8-1.1c3-4.3,9-12.7,13.9-18.4l1-1.1c1.8,0.8,3.6,1.3,5.5,1.6c0,0,7.5-2.9,10.2-9.5c1.2-2.8,5.8-7.8,10.7-12.5
	c-0.1,0.8-0.2,1.3-0.2,1.3l-0.2,41.8c1.6,1.1,3.3,2.1,5.1,2.8c0,0.3,0,0.7,0,1c0,6-0.3,11.9-1.1,17.8c0,0.3-0.1,0.6-0.2,0.9
	c-0.6-0.4-1.1-0.6-1.5-0.2c-1.5,1.6-2.5,11.5-2.6,16.1c0,0.1,0,0.2,0,0.3l0,0c-0.1,1.9-0.6,4.2-0.6,6.2c0,2.9,0.9,5.4,5.6,5.6
	c5.8,0.3,31,0.6,44.4,0.8c7.3,0.2,14.3-2.4,19.9-7.1c2.5-2.1,4.4-4.5,4.4-6.7c0.1-1.7-0.8-3.4-3.4-4.8c0,0.1,0,0.1-0.1,0.2
	c-0.3-0.2-0.7-0.4-1.1-0.5l-12.9-2l-22-11.3c0,0-0.1-6.9-2.8-5.7c-0.8,0.2-1.5,0.5-2.2,0.9c-0.1-0.3-0.3-0.5-0.4-0.8
	c-1.8-3.6-2.7-7.5-2.7-11.6c0-0.4,0-0.7,0.1-1.1c0.6-0.6,1.3-1.2,1.8-1.9c0,0-0.2-15.6,1.6-18.5c1.7-3,7.1-32.7,7.1-32.7
	s0.2-5.5,3.6-8.8s2.3-12.8,2.3-12.8s4.9-2.6,6.4-11.1s6.6-27,6.6-27s10.4-27.4,9.7-44.7c-0.7-17.3,1-26.3,1-26.3l2.2-40.3v-0.6
	c0.9,0.7,1.4,1.2,1.4,1.2s0-0.2,0-0.4l0.5,0.4c0,0,1.1-18.3,0.7-25.5c6.1-2.1,15.3-5.5,15.8-7.2c0.8-2.6,11.2-10.8,11.2-10.8
	c-0.2,0-0.4-0.1-0.6-0.2c0.3-0.2,0.7-0.3,1-0.5c6.8-3.7,19.5-14.4,17.4-21l13.9-20.1C295.7,204.6,295.6,202.8,294.5,201.7z
	 M181.5,182.1c-0.3,0-0.7,0-1,0.1c-0.6-3.6-1.5-7.1-2.5-10.6c-1.6-5.4-3.3-10.9-3.6-16.6c0-0.2,0-0.5,0-0.7c0-1.5,0.2-3,0.6-4.4
	c0.3,0.6,0.7,1.2,1.1,1.8c2.2,3.4,4.8,6.6,6.2,10.4c0.5,1.8,1.1,3.6,1.9,5.2c1,1.6,2.7,2.9,4.5,2.7c0.6-0.1,1.2-0.4,1.7-0.8
	C187.9,173.8,185,178.1,181.5,182.1z"/>
<path class="st14" d="M261.1,251.4c-1,0.6-2.1,1.1-3.3,1.3c-4.3,0.1-7.8-11.5-7.8-11.5s1.2-1.2,3.2-3c5.7-5.1,17.8-14.6,23.4-9.3
	C282.8,234.8,268.4,247.4,261.1,251.4z"/>
<path class="st14" d="M196.2,529.1l-15.8,17.1c0,0-14.6,0.2-11.7-7.9c0.6-1.7,1-3.5,1.2-5.4c0.7-5.8,1.1-11.5,1-17.3
	c0-3.8-0.1-6.5-0.1-6.5s23-10.1,20.6,0.4c-0.3,1.3-0.5,2.7-0.5,4c0,3.9,0.9,7.8,2.6,11.3C194.3,526.3,195.2,527.8,196.2,529.1z"/>
<path class="st1" d="M196.2,529.1l-15.8,17.1c0,0-14.6,0.2-11.7-7.9c0.6-1.7,1-3.5,1.2-5.4c2.1,1.6,5.1,6.4,5.1,6.4s10.1,3,12.8-5.9
	c1.5-5,4-7.4,5.8-8.6C194.3,526.3,195.2,527.8,196.2,529.1z"/>
<path class="st15" d="M232.7,555c-5.3,4.6-12.2,7-19.2,6.9c-13-0.2-37.3-0.6-42.9-0.8c-7.5-0.3-5-6.8-4.8-11.3c0-0.2,0-0.3,0-0.4
	c0.1-4.5,1-14.2,2.5-15.7c1.5-1.5,6.7,6.7,6.7,6.7s10.1,3,12.8-5.9s8.4-9.7,8.4-9.7c2.6-1.1,2.7,5.6,2.7,5.6l21.3,11.1l12.5,2
	c0.4,0.2,0.8,0.4,1.1,0.6C239.4,547.1,236.9,551.3,232.7,555z"/>
<ellipse class="st16" cx="193.4" cy="537" rx="0.9" ry="0.9"/>
<ellipse class="st16" cx="202" cy="541.3" rx="0.9" ry="0.9"/>
<ellipse class="st16" cx="206.5" cy="543.3" rx="0.9" ry="0.9"/>
<ellipse class="st16" cx="215.7" cy="546.9" rx="0.9" ry="0.9"/>
<ellipse class="st16" cx="211" cy="545.3" rx="0.9" ry="0.9"/>
<path class="st15" d="M232.7,555c-5.3,4.6-12.2,7-19.2,6.9c-13-0.2-37.3-0.6-42.9-0.8c-7.5-0.3-5-6.8-4.8-11.3l47.4,2.9
	c0,0,19.4-3,20.6-8.8C239.4,547.1,236.9,551.3,232.7,555z"/>
<path class="st16" d="M232.7,554.8c-5.3,4.6-12.2,7.1-19.2,6.9c-13-0.2-37.3-0.6-42.9-0.8c-7.5-0.3-5-6.8-4.8-11.3l47.4,2.9
	c0,0,19.4-3,20.6-8.8C239.4,546.9,236.9,551.2,232.7,554.8z"/>
<path class="st14" d="M144.5,486.1c-1.7,1.4-3.3,3-4.8,4.8c-4.7,5.5-10.5,13.7-13.4,17.9l-1.8,2.6l-6.3-1c0,0-6.8-10.5-6.7-10.7
	c0.1-0.3,5.3-11.5,5.3-11.5l2-2.4l6.4-7.6l2.9-3.4C128.3,474.8,150.3,482,144.5,486.1z"/>
<path class="st1" d="M126.4,508.8l-1.8,2.6l-6.3-1c0,0-6.8-10.5-6.7-10.7c0.1-0.3,5.3-11.5,5.3-11.5l2-2.4l0.7,0.1h1.6
	c-5.6,5.9,0.4,18.9,0.4,18.9S124.3,505.2,126.4,508.8z"/>
<path class="st15" d="M119.3,522.1c0,0-4.2,9.1-6.5,14.3c-2.3,5.2-1.4,9-1.4,9c-0.2,0.7-0.4,1.3-0.7,2c-1,2.1-3.4,5.1-8.6,5.5
	c-0.1,0-0.3,0-0.4,0c-7.6-0.2-10.1-22.5-10.1-22.5s1.2-42.5,3.3-45.3c0.3-0.3,0.7-0.5,1.1-0.6c2.2-0.4,4.5-0.4,6.7-0.2
	c6.9,0.5,15.8,2.2,15.8,2.2h1.6c-5.6,5.9,0.4,18.9,0.4,18.9s2.7,0.3,4.8,4.1C127.6,513.3,119.3,522.1,119.3,522.1z"/>
<ellipse class="st16" cx="110.1" cy="509.4" rx="0.9" ry="0.9"/>
<ellipse class="st16" cx="109.7" cy="516.8" rx="0.9" ry="0.9"/>
<path class="st15" d="M110.1,547.2c-1.6,3.3-4.9,5.4-8.6,5.5h-0.4c-7.6-0.2-10.1-22.6-10.1-22.6s1.2-42.5,3.3-45.2
	c0.3-0.3,0.7-0.5,1.1-0.6c2.2-0.4,4.5-0.4,6.7-0.2c-0.1,7.6-0.5,31.8,0,34.2C102.8,520.7,107.1,540.8,110.1,547.2z"/>
<path class="st17" d="M110.7,547.4c-1.6,3.3-4.9,5.4-8.6,5.5c-0.1,0-0.3,0-0.4,0c-7.7-0.2-10.1-22.5-10.1-22.5s1.2-42.5,3.3-45.3
	c0.3-0.3,0.7-0.5,1.1-0.6c2.2-0.4,4.5-0.4,6.7-0.2c-0.1,7.6-0.5,31.8,0,34.2C103.3,520.9,107.6,540.9,110.7,547.4z"/>
<path class="st15" d="M101.2,552.7c-7.6-0.2-10.1-22.6-10.1-22.6s1.2-42.5,3.3-45.2c0.3-0.3,0.7-0.5,1.1-0.6c1.6,2.4,3,7.7,1.8,19.4
	c-2.4,22.2,0.5,23.5,0.5,23.5S101.3,546.1,101.2,552.7z"/>
<path class="st1" d="M101.1,552.7c-7.6-0.2-10.1-22.6-10.1-22.6s1.2-42.5,3.3-45.2c0.3-0.3,0.7-0.5,1.1-0.6c1.6,2.4,3,7.7,1.8,19.4
	c-2.4,22.2,0.5,23.5,0.5,23.5S101.3,546.1,101.1,552.7z"/>
<path class="st1" d="M261.1,251.4c-1,0.6-2.1,1.1-3.3,1.3c-4.3,0.1-7.8-11.5-7.8-11.5s1.2-1.2,3.2-3
	C254.5,241.3,258.4,249.8,261.1,251.4z"/>
<path class="st18" d="M233.7,247.2c0,0,3.6,0.3,5.8-1.3c2.2-1.5,11.9-5.7,12.2-8.5c0,0,5.8,14.2,9.1,14.7c0,0-10.1,8-10.8,10.5
	c-0.8,2.5-20.4,8.7-20.4,8.7L233.7,247.2z"/>
<path class="st15" d="M233.7,247.2c0,0,3.6,0.3,5.8-1.3c2.2-1.5,11.9-5.7,12.2-8.5c0,0,5.8,14.2,9.1,14.7c0,0-10.1,8-10.8,10.5
	c-0.8,2.5-20.4,8.7-20.4,8.7L233.7,247.2z"/>
<path class="st1" d="M144.5,486.1c-1.7,1.4-3.3,3-4.8,4.8c-7.6-3.2-12.4-9.7-14.3-12.6l2.9-3.4C128.4,474.9,150.3,482,144.5,486.1z"
	/>
<path class="st19" d="M180.4,414.3c0,0-12.3,16.5-16.8,18.4c-4.5,1.9-38,43.2-38,43.2s7.2,13.3,20.4,15.5c0,0,7.2-2.9,9.9-9.3
	s23.8-24.5,23.8-24.5L180.4,414.3z"/>
<path class="st1" d="M180.4,414.3c0,0-12.3,16.5-16.8,18.4c-4.5,1.9-38,43.2-38,43.2s7.2,13.3,20.4,15.5c0,0,7.2-2.9,9.9-9.3
	s23.8-24.5,23.8-24.5L180.4,414.3z"/>
<path class="st1" d="M143.2,469.7c3.7,0.4,7.5,0.4,11.2,0C161,469,156,473.1,143.2,469.7z"/>
<path class="st1" d="M140.2,474c0,0,8.8,5.1,12.2,2.5C155.7,474,149.1,478.9,140.2,474z"/>
<path class="st1" d="M191.5,509.5c-0.3,1.3-0.5,2.7-0.5,4c-6.8,6.2-15,4.3-20.1,2c0-3.8-0.1-6.5-0.1-6.5S193.8,499,191.5,509.5z"/>
<path class="st19" d="M232.2,289.3l-0.3,4.7l-2.1,39.2c0,0-1.7,8.8-1,25.7c0.7,16.9-9.4,43.6-9.4,43.6s-4.9,18.1-6.4,26.3
	c-1.5,8.3-6.2,10.8-6.2,10.8s1.2,9.3-2.2,12.5c-3.3,3.2-3.6,8.6-3.6,8.6s-5.2,29-6.9,31.9s-1.5,18.1-1.5,18.1
	c-10.9,13-26.8,1.2-26.8,1.2l0.2-40.7c0,0,4.5-37.5,7.9-42.7c3.3-5.2,3.3-19.6,3.3-19.6l-1.5-33.4c0,0-1.2-3.6-0.2-5.6
	c1-2-2.9-7.6-2.9-7.6c-9.4-11.5-10.7-37.3-8-42.4c2.7-5.1,10.9-25.3,10.9-25.3l11.2-6.6l20.3,0.6L232.2,289.3z"/>
<path class="st1" d="M184.5,488.3c0,0,2.7,9.2,4.8,10.3C191.4,499.6,184.5,488.3,184.5,488.3z"/>
<path class="st1" d="M188.2,457.5c0,0,6.9,5.5,9.8,5.5C200.9,463,188.2,457.5,188.2,457.5z"/>
<path class="st14" d="M229.5,229v11.2l-7.3-3.2l-7.3-3.2l-15.8-15.7c0,0-12.5-8.2-19.2-15.7c-3.8-4.3-5.8-8.3-2.4-10.4
	c1.6-1.1,3.1-2.4,4.4-3.9c3.4-4,6.3-8.4,8.7-13l0.3-0.6c3.3-6,5.4-11.2,5.4-11.2s9.2,3,15.1,7.2c0.5,0.3,0.9,0.7,1.4,1
	c3.3,2.7,4.9,5.9,1.9,9c-0.8,0.8-1.5,1.7-2.2,2.6l0,0c-0.5,0.7-0.9,1.4-1.3,2.1c-0.2,0.3-0.4,0.7-0.5,1c-2,4.2-2.7,8.9-2,13.5
	L229.5,229z"/>
<path class="st1" d="M214.7,180.6c-0.8,0.8-1.5,1.7-2.2,2.6l0,0c-0.5,0.7-0.9,1.4-1.3,2.1c-0.2,0.3-0.4,0.7-0.5,1
	c-7.8-0.4-15.1-4.4-19.8-10.7c-0.1-0.2-0.2-0.3-0.3-0.4l0.3-0.6c3.3-6,5.4-11.2,5.4-11.2s9.2,3,15.1,7.2c0.5,0.3,0.9,0.7,1.4,1
	C216.1,174.3,217.7,177.5,214.7,180.6z"/>
<path class="st14" d="M238.6,158.8c0,14.7-11.8,26.6-26.4,26.6c0,0,0,0,0,0H212h-0.9c-14.6-0.5-26-12.9-25.4-27.5
	c0.5-14.7,12.8-26.1,27.4-25.6C227.3,132.7,238.5,144.5,238.6,158.8L238.6,158.8z"/>
<path class="st1" d="M215.6,224.5c0,0,13.3,7.6,9.9,1.2l-17.3-25.8l0,0l19.7,25.5c0,0,12.6,17.4,5.7,29.4c0,0-1,10,0.2,12.3
	s-0.3,27.5-0.3,27.5s-4.7-4.4-7.2-3.6c-2.5,0.8-20.3,2.4-20.3,2.4L215.6,224.5z"/>
<path class="st1" d="M232.2,289.3l-0.3,4.7c-1.6-1.2-3.8-2.5-5.3-2c-2.5,0.8-20.2,2.4-20.2,2.4l0.8-5.8L232.2,289.3z"/>
<path class="st20" d="M216.1,224.5c0,0,13.3,7.6,9.9,1.2l-17.3-25.8l0,0l19.7,25.5c0,0,12.6,17.4,5.7,29.4c0,0-1,10,0.2,12.3
	c1.2,2.4-0.3,27.5-0.3,27.5s-4.7-4.4-7.2-3.6c-2.5,0.8-20.3,2.4-20.3,2.4L216.1,224.5z"/>
<path class="st1" d="M223.2,237.5c-0.8,8.1-4.1,17.8-4.1,17.8s-2.3,24-5.3,31.1s-1.7,16.9-3.3,34.9c-0.6,6.5-2.7,11-5.5,14
	c-4.6,5-11.2,6-16.4,5.7l-1.2-0.1c-8.4-0.8-16.4-41.5-16.4-41.5s-3.9-34.6-2.3-39.3c1.5-4.7-1.5-31.7-2.5-37.7
	c-0.6-3.7,1.3-9.8,2.8-13.8c0.9-2.3,1.6-3.9,1.6-3.9s2.9-9.1,7.5-13.8c1.3-1.4,3.1-2.1,5-2.1c2.2,0.1,4.4,0.8,6.2,2l0.2,0.1
	c0,0,30.5,31.4,33.3,38.7C223.5,231.4,223.5,234.3,223.2,237.5z"/>
<path class="st15" d="M222.2,236.9c-0.8,8.1-4.1,17.8-4.1,17.8s-2.3,24-5.3,31.1c-3,7.1-1.7,16.9-3.4,34.9c-0.6,6.5-2.7,11-5.5,14
	c-4.6,5-11.2,6-16.4,5.7c-0.4,0-0.8-0.1-1.2-0.1c-8.4-0.8-16.4-41.5-16.4-41.5s-3.9-34.6-2.3-39.3c1.5-4.7-1.5-31.7-2.5-37.7
	c-0.6-3.7,1.3-9.8,2.8-13.8c0.9-2.3,1.6-3.9,1.6-3.9s2.9-9.1,7.5-13.8c1.3-1.3,3.1-2.1,5-2.1c2.2,0.1,4.4,0.8,6.2,2l0.2,0.1
	c0,0,30.5,31.4,33.3,38.7C222.4,230.9,222.5,233.8,222.2,236.9z"/>
<path class="st1" d="M188,360.5c0,0-6.9,6.2-9.3,6C176.4,366.2,188,360.5,188,360.5z"/>
<path class="st1" d="M189.9,366.5c0,0-7.3,3.4-9.5,3.9S187.1,365.6,189.9,366.5z"/>
<path class="st1" d="M218.1,273.3c0,0,10.8,0.1,12.4,3.6S221.6,271.9,218.1,273.3z"/>
<path class="st1" d="M216.6,279.2c0,0,8.3,1.8,10.8,3.8C229.9,285,216.6,279.2,216.6,279.2z"/>
<path class="st1" d="M202.6,258.6c0,0-1,34.4-4.7,38.7S202.6,258.6,202.6,258.6z"/>
<path class="st1" d="M193.3,355.6c0,0-6.9,30.3,7,32.2c13.9,1.9,9.6-34.4,9.6-34.4L193.3,355.6z"/>
<path class="st14" d="M192.8,355.1c0,0-6.9,30.3,7,32.2c13.9,1.9,9.6-34.4,9.6-34.4L192.8,355.1z"/>
<path class="st1" d="M204.7,228c-0.7-18.2-26-21.9-31.9-4.7l-0.1,0.3c-3.8,11.6-2.2,41.2-2.2,41.2s0.5,19.8,2.3,26.4
	c1.8,6.6,7,25.5,7,28.5c0,3,4.8,14.7,6.9,15.5c2,0.9,3.1,7.4,3.6,8.6c0.5,1.2,2,16.5,2,16.5s18.9-1.2,19.3-4.2s-4.2-17.9-4.2-17.9
	s-3.3-6.1-3.8-11c-0.4-4.9-3.1-7.1-2.6-10.5c0.5-3.4-1.5-5.1-1.5-7.3s-1.5-8.1-1.5-8.1s-3.2-2.5-2.7-5.6c0.5-3-4.5-9.1-3.2-11.3
	c1.3-2.2,1.7-7.6,1.7-7.6s1.7-24.3,2.8-30.9c1.1-6.6,8-17.2,8-17.2S204.7,228.6,204.7,228z"/>
<path class="st1" d="M203.9,334.7c-4.6,5-11.2,6-16.4,5.7c-0.6-2.3-1.5-5.1-2.8-5.7c-2-0.8-6.9-12.5-6.9-15.5c0-3-5.2-22-7-28.5
	s-2.3-26.4-2.3-26.4s-1.7-29.5,2.2-41.2c0-0.1,0.1-0.2,0.1-0.4c5.9-17.2,31.2-13.4,31.9,4.8c0,0.5,0,0.8,0,0.8s-6.9,10.6-8,17.2
	c-1.1,6.6-2.9,30.9-2.9,30.9s-0.3,5.4-1.7,7.6s3.7,8.3,3.2,11.3c-0.5,3,2.7,5.6,2.7,5.6s1.5,5.9,1.5,8.1c0,2.2,2,3.9,1.5,7.3
	c-0.5,3.4,2.2,5.6,2.6,10.5C202,329.5,202.8,332.2,203.9,334.7z"/>
<path class="st15" d="M203.7,227.5c-0.7-18.2-26-22-31.9-4.7c0,0.1-0.1,0.2-0.1,0.3c-3.9,11.6-2.2,41.2-2.2,41.2s0.5,19.8,2.3,26.4
	c1.8,6.6,7,25.5,7,28.5c0,3,4.8,14.7,6.9,15.5c2,0.8,3.1,7.4,3.6,8.6c0.5,1.2,2,16.5,2,16.5s18.9-1.2,19.3-4.2
	c0.3-3-4.2-17.9-4.2-17.9s-3.3-6.1-3.8-11s-3.1-7.1-2.6-10.5c0.5-3.4-1.5-5.1-1.5-7.3c0-2.2-1.5-8.1-1.5-8.1s-3.2-2.5-2.7-5.6
	c0.5-3-4.5-9.1-3.2-11.3c1.3-2.2,1.7-7.6,1.7-7.6s1.7-24.3,2.9-30.9c1.2-6.6,8-17.2,8-17.2S203.8,228.1,203.7,227.5z"/>
<path class="st1" d="M172.6,274.3c0.5-0.5,10.1-11.1,13.1-7.3C188.7,270.8,172.6,274.3,172.6,274.3z"/>
<path class="st1" d="M173.5,282.5c0.4-0.4,9.6-0.8,11.8-6C187.5,271.4,173.5,282.5,173.5,282.5z"/>
<g class="st21">
	<path d="M163,189.1c0.2,0.3,0.4,0.6,0.5,0.9c0.4-1.2,0.2-2.4-0.5-3.5c-0.4-0.5-1.1-0.8-1.5-1.4c0,0-0.1-0.1-0.1-0.1
		c-0.4,0.8-0.4,1.9,0.1,2.7C161.9,188.3,162.6,188.6,163,189.1z"/>
	<path d="M175.8,156.3c0-1,0-1.9,0-2.9c-0.2-3.4-0.8-7-1-10.4c-0.2,4.2,0.7,8.7,1,13C175.8,156.1,175.8,156.2,175.8,156.3z"/>
</g>
<path class="st20" d="M264.8,244.2l0.5,0.4c-0.9-0.7-1.2-2-0.5-2.9l23.3-34.1c0.7-1,1.9-1.2,2.9-0.5l-0.5-0.4c1.5,1,1.9,3.1,0.9,4.7
	c0,0,0,0,0,0l-21.9,32C268.4,244.8,266.3,245.2,264.8,244.2C264.8,244.2,264.8,244.2,264.8,244.2z"/>
<path class="st22" d="M290.5,206.7l0.5,0.4l0,0l-25.6,37.5l0,0l-0.5-0.4c-0.7-0.5-0.9-1.5-0.4-2.2l23.9-34.9
	C288.9,206.4,289.8,206.2,290.5,206.7z"/>
<path class="st20" d="M285.6,211.5L285.6,211.5c0.2,0.1,0.2,0.2,0.1,0.3l-1.9,2.8c0,0.1-0.1,0.1-0.2,0l-0.1-0.1
	c-0.1,0-0.1-0.1,0-0.2l1.9-2.8C285.5,211.5,285.6,211.5,285.6,211.5z"/>
<path class="st1" d="M241.9,155.5c-0.4-1.8-1.8-3.2-2.9-4.7c-2.5-3.9-2.1-9-1-13.4c0.4-1.2,0.6-2.5,0.5-3.8
	c-0.3-1.7-1.4-3.1-2.8-3.9c-3.1-2.1-7.1-2.1-10.6-3.4c-5.1-1.9-9.7-6.6-15-5.4c-2.9,0.6-5.1,2.9-7.6,4.5c-2.8,1.8-5.9,2.7-9.2,2.8
	c-2.7,0.1-5.5-0.5-8.2,0c-0.5,0.1-1,0.2-1.4,0.4c-2.3-0.8-4.7-1.2-7.1-1.2c-2.4-0.1-4.7,0.6-6.7,1.9c-3.7,2.6-4.6,7.6-4.6,12.1
	c0.1,4.5,0.8,9.1-0.6,13.4c-1.7,5.4-6.5,9.4-7.5,14.9c-0.7,3.7,0.6,7.5,1.7,11.2c3.1,10.5,5.2,22,1,32.1c-1.1,2.6-2.7,5.1-5.1,6.3
	l8.9-0.5c0.4,2.6-1.4,5.1-4,5.5c2.2-0.1,4.4-0.6,6.5-1.5c2.1-0.9,3.6-2.8,4.1-5c0.2-1.2-0.1-2.5,0.2-3.6c0.6-2,2.7-3.1,4.3-4.4
	c4.3-3.4,6.4-9.1,6.5-14.6c0.2-5.5-1.3-11-2.8-16.3s-3.2-10.6-3.5-16.1c-0.1-2,0.1-4,0.6-6c0.3,0.6,0.7,1.2,1,1.7
	c2.1,3.3,4.6,6.4,6,10.1c0.5,1.8,1.1,3.5,1.9,5.1c0.9,1.6,2.6,2.9,4.4,2.6c1.8-0.3,3.1-2.2,3.7-4.1c0.6-1.8,0.8-3.9,2-5.4
	c2.1-3,6.3-3.2,10-3.1c7.6,0.2,18.2,1.4,24.2-4.5c1.1-1.1,1.7-2.8,3.5-2.4c1.6,0.4,2.5,3,4.2,3.6C239,161.2,242.5,158.6,241.9,155.5
	z"/>
<path class="st20" d="M241.9,154.5c-0.4-1.8-1.8-3.2-2.9-4.7c-2.5-3.9-2.1-9-1-13.4c0.4-1.2,0.6-2.5,0.5-3.8
	c-0.3-1.7-1.4-3.1-2.8-3.9c-3.1-2.1-7.1-2.1-10.6-3.4c-5.1-1.9-9.7-6.6-15-5.4c-2.9,0.6-5.1,2.9-7.6,4.5c-2.8,1.8-5.9,2.7-9.2,2.8
	c-2.7,0.1-5.5-0.5-8.2,0c-0.5,0.1-1,0.2-1.4,0.4c-2.3-0.8-4.7-1.2-7.1-1.2c-2.4-0.1-4.7,0.6-6.7,1.9c-3.7,2.6-4.6,7.6-4.6,12.1
	s0.8,9.1-0.6,13.4c-1.7,5.3-6.5,9.4-7.5,14.9c-0.7,3.7,0.6,7.5,1.7,11.2c3.1,10.5,5.2,22,1,32.1c-1.1,2.6-2.7,5.1-5.1,6.3l8.9-0.5
	c0.4,2.6-1.4,5.1-4,5.5c2.2-0.1,4.4-0.6,6.5-1.5c2.1-0.9,3.6-2.8,4.1-5c0.2-1.2-0.1-2.5,0.2-3.6c0.6-2,2.7-3.1,4.3-4.4
	c4.3-3.4,6.4-9.1,6.5-14.6c0.2-5.5-1.3-11-2.8-16.3s-3.2-10.6-3.5-16.2c-0.1-2,0.1-4,0.6-6c0.3,0.6,0.7,1.2,1,1.8
	c2.1,3.3,4.6,6.4,6,10.1c0.5,1.8,1.1,3.5,1.9,5.1c0.9,1.6,2.6,2.9,4.4,2.6s3.1-2.2,3.7-4.1c0.6-1.8,0.8-3.9,2-5.4
	c2.1-3,6.3-3.2,10-3.1c7.6,0.2,18.2,1.4,24.2-4.5c1.1-1.1,1.7-2.8,3.5-2.4c1.6,0.4,2.5,3,4.2,3.6C239,160.2,242.5,157.6,241.9,154.5
	z"/>
<g class="st21">
	<path d="M165.3,138.7c0,0.6,0,1.2,0,1.7c0,1.9,0.2,3.8,0.2,5.7C165.6,143.6,165.4,141.1,165.3,138.7z"/>
	<path d="M162.2,197.8c0.2-7-1.3-14.1-3.4-20.9c-0.8-2.4-1.4-4.9-1.8-7.4c-0.4,3.5,0.7,7,1.8,10.4
		C160.8,185.7,161.9,191.7,162.2,197.8z"/>
	<path d="M237.2,141.3c0.1-1.7,0.4-3.3,0.9-4.9c0.4-1.2,0.6-2.5,0.5-3.8c0-0.2-0.1-0.5-0.2-0.7c-0.1,0.5-0.2,1-0.4,1.5
		C237.3,136,237,138.7,237.2,141.3z"/>
	<path d="M163.7,214.8l-5.3,0.3c-0.9,1.4-2.1,2.4-3.5,3.2l8.4-0.5C163.7,216.9,163.8,215.8,163.7,214.8z"/>
	<path d="M241.6,153.8c-0.9,2.1-3.3,3.2-5.4,2.6c-1.7-0.6-2.6-3.2-4.2-3.6c-1.8-0.4-2.3,1.3-3.5,2.4c-6,5.9-16.5,4.7-24.2,4.5
		c-3.6-0.1-7.8,0.2-10,3.1c-1.1,1.6-1.4,3.6-2,5.4c-0.6,1.9-1.8,3.8-3.7,4.1c-1.9,0.3-3.5-1-4.4-2.6c-0.8-1.6-1.4-3.3-1.9-5.1
		c-1.3-3.7-3.8-6.8-6-10.1c-0.4-0.6-0.7-1.1-1-1.7c-0.5,2-0.7,4-0.6,6c0,0.1,0,0.3,0,0.4c0.1-1.2,0.2-2.3,0.5-3.5
		c0.3,0.6,0.7,1.2,1,1.8c2.1,3.3,4.6,6.4,6,10.1c0.5,1.8,1.1,3.5,1.9,5.1c0.9,1.6,2.6,2.9,4.4,2.6s3.1-2.2,3.7-4.1
		c0.6-1.8,0.8-3.9,2-5.4c2.1-3,6.3-3.2,10-3.1c7.6,0.2,18.2,1.4,24.2-4.5c1.1-1.1,1.7-2.8,3.5-2.4c1.6,0.4,2.5,3,4.2,3.6
		c2.8,1,6.3-1.7,5.7-4.8C241.8,154.3,241.7,154,241.6,153.8z"/>
	<path d="M174.7,205.8c-1.6,1.3-3.7,2.4-4.3,4.4c-0.3,1.2-0.1,2.4-0.2,3.6c-0.5,2.2-2,4.1-4.1,5c-0.8,0.4-1.7,0.7-2.6,0.9
		c-0.5,1.9-2,3.3-4,3.6c2.2-0.1,4.4-0.6,6.5-1.5c2.1-0.9,3.6-2.8,4.1-5c0.2-1.2-0.1-2.5,0.2-3.6c0.6-2,2.7-3.1,4.3-4.4
		c4.3-3.4,6.4-9.1,6.5-14.6c0-0.8,0-1.6,0-2.5C181,197,178.9,202.6,174.7,205.8z"/>
</g>
</svg>
